<svg width="8" height="25" viewBox="0 0 8 25" fill="none" xmlns="http://www.w3.org/2000/svg">
<path d="M3.64645 24.3536C3.84171 24.5488 4.15829 24.5488 4.35355 24.3536L7.53553 21.1716C7.7308 20.9763 7.7308 20.6597 7.53553 20.4645C7.34027 20.2692 7.02369 20.2692 6.82843 20.4645L4 23.2929L1.17157 20.4645C0.976311 20.2692 0.659728 20.2692 0.464466 20.4645C0.269204 20.6597 0.269204 20.9763 0.464466 21.1716L3.64645 24.3536ZM4.5 24C4.5 23.9817 4.5 23.9634 4.5 23.945C4.5 23.9267 4.5 23.9083 4.5 23.8899C4.5 23.8715 4.5 23.8531 4.5 23.8347C4.5 23.8163 4.5 23.7978 4.5 23.7794C4.5 23.7609 4.5 23.7424 4.5 23.7239C4.5 23.7054 4.5 23.6869 4.5 23.6684C4.5 23.6498 4.5 23.6313 4.5 23.6127C4.5 23.5941 4.5 23.5755 4.5 23.5569C4.5 23.5383 4.5 23.5196 4.5 23.501C4.5 23.4823 4.5 23.4637 4.5 23.445C4.5 23.4263 4.5 23.4076 4.5 23.3888C4.5 23.3701 4.5 23.3514 4.5 23.3326C4.5 23.3138 4.5 23.295 4.5 23.2762C4.5 23.2574 4.5 23.2386 4.5 23.2198C4.5 23.2009 4.5 23.1821 4.5 23.1632C4.5 23.1443 4.5 23.1254 4.5 23.1065C4.5 23.0876 4.5 23.0687 4.5 23.0498C4.5 23.0308 4.5 23.0118 4.5 22.9929C4.5 22.9739 4.5 22.9549 4.5 22.9359C4.5 22.9169 4.5 22.8978 4.5 22.8788C4.5 22.8597 4.5 22.8407 4.5 22.8216C4.5 22.8025 4.5 22.7834 4.5 22.7643C4.5 22.7452 4.5 22.726 4.5 22.7069C4.5 22.6877 4.5 22.6686 4.5 22.6494C4.5 22.6302 4.5 22.611 4.5 22.5918C4.5 22.5726 4.5 22.5533 4.5 22.5341C4.5 22.5148 4.5 22.4956 4.5 22.4763C4.5 22.457 4.5 22.4377 4.5 22.4184C4.5 22.3991 4.5 22.3798 4.5 22.3604C4.5 22.3411 4.5 22.3217 4.5 22.3024C4.5 22.283 4.5 22.2636 4.5 22.2442C4.5 22.2248 4.5 22.2054 4.5 22.1859C4.5 22.1665 4.5 22.147 4.5 22.1276C4.5 22.1081 4.5 22.0886 4.5 22.0691C4.5 22.0496 4.5 22.0301 4.5 22.0106C4.5 21.991 4.5 21.9715 4.5 21.9519C4.5 21.9324 4.5 21.9128 4.5 21.8932C4.5 21.8736 4.5 21.854 4.5 21.8344C4.5 21.8148 4.5 21.7952 4.5 21.7755C4.5 21.7559 4.5 21.7362 4.5 21.7166C4.5 21.6969 4.5 21.6772 4.5 21.6575C4.5 21.6378 4.5 21.6181 4.5 21.5984C4.5 21.5786 4.5 21.5589 4.5 21.5391C4.5 21.5194 4.5 21.4996 4.5 21.4798C4.5 21.46 4.5 21.4402 4.5 21.4204C4.5 21.4006 4.5 21.3808 4.5 21.361C4.5 21.3411 4.5 21.3213 4.5 21.3014C4.5 21.2816 4.5 21.2617 4.5 21.2418C4.5 21.2219 4.5 21.202 4.5 21.1821C4.5 21.1622 4.5 21.1422 4.5 21.1223C4.5 21.1024 4.5 21.0824 4.5 21.0624C4.5 21.0425 4.5 21.0225 4.5 21.0025C4.5 20.9825 4.5 20.9625 4.5 20.9425C4.5 20.9225 4.5 20.9025 4.5 20.8824C4.5 20.8624 4.5 20.8423 4.5 20.8223C4.5 20.8022 4.5 20.7821 4.5 20.762C4.5 20.742 4.5 20.7219 4.5 20.7018C4.5 20.6816 4.5 20.6615 4.5 20.6414C4.5 20.6213 4.5 20.6011 4.5 20.581C4.5 20.5608 4.5 20.5406 4.5 20.5205C4.5 20.5003 4.5 20.4801 4.5 20.4599C4.5 20.4397 4.5 20.4195 4.5 20.3993C4.5 20.379 4.5 20.3588 4.5 20.3386C4.5 20.3183 4.5 20.2981 4.5 20.2778C4.5 20.2575 4.5 20.2373 4.5 20.217C4.5 20.1967 4.5 20.1764 4.5 20.1561C4.5 20.1358 4.5 20.1155 4.5 20.0951C4.5 20.0748 4.5 20.0545 4.5 20.0341C4.5 20.0138 4.5 19.9934 4.5 19.973C4.5 19.9527 4.5 19.9323 4.5 19.9119C4.5 19.8915 4.5 19.8711 4.5 19.8507C4.5 19.8303 4.5 19.8099 4.5 19.7895C4.5 19.7691 4.5 19.7486 4.5 19.7282C4.5 19.7077 4.5 19.6873 4.5 19.6668C4.5 19.6464 4.5 19.6259 4.5 19.6054C4.5 19.5849 4.5 19.5644 4.5 19.5439C4.5 19.5235 4.5 19.5029 4.5 19.4824C4.5 19.4619 4.5 19.4414 4.5 19.4209C4.5 19.4003 4.5 19.3798 4.5 19.3592C4.5 19.3387 4.5 19.3181 4.5 19.2976C4.5 19.277 4.5 19.2564 4.5 19.2359C4.5 19.2153 4.5 19.1947 4.5 19.1741C4.5 19.1535 4.5 19.1329 4.5 19.1123C4.5 19.0917 4.5 19.071 4.5 19.0504C4.5 19.0298 4.5 19.0091 4.5 18.9885C4.5 18.9679 4.5 18.9472 4.5 18.9265C4.5 18.9059 4.5 18.8852 4.5 18.8646C4.5 18.8439 4.5 18.8232 4.5 18.8025C4.5 18.7818 4.5 18.7611 4.5 18.7404C4.5 18.7197 4.5 18.699 4.5 18.6783C4.5 18.6576 4.5 18.6369 4.5 18.6161C4.5 18.5954 4.5 18.5747 4.5 18.5539C4.5 18.5332 4.5 18.5125 4.5 18.4917C4.5 18.471 4.5 18.4502 4.5 18.4294C4.5 18.4087 4.5 18.3879 4.5 18.3671C4.5 18.3463 4.5 18.3256 4.5 18.3048C4.5 18.284 4.5 18.2632 4.5 18.2424C4.5 18.2216 4.5 18.2008 4.5 18.18C4.5 18.1591 4.5 18.1383 4.5 18.1175C4.5 18.0967 4.5 18.0759 4.5 18.055C4.5 18.0342 4.5 18.0133 4.5 17.9925C4.5 17.9717 4.5 17.9508 4.5 17.93C4.5 17.9091 4.5 17.8882 4.5 17.8674C4.5 17.8465 4.5 17.8256 4.5 17.8048C4.5 17.7839 4.5 17.763 4.5 17.7421C4.5 17.7213 4.5 17.7004 4.5 17.6795C4.5 17.6586 4.5 17.6377 4.5 17.6168C4.5 17.5959 4.5 17.575 4.5 17.5541C4.5 17.5332 4.5 17.5123 4.5 17.4913C4.5 17.4704 4.5 17.4495 4.5 17.4286C4.5 17.4077 4.5 17.3867 4.5 17.3658C4.5 17.3449 4.5 17.3239 4.5 17.303C4.5 17.2821 4.5 17.2611 4.5 17.2402C4.5 17.2192 4.5 17.1983 4.5 17.1773C4.5 17.1564 4.5 17.1354 4.5 17.1145C4.5 17.0935 4.5 17.0726 4.5 17.0516C4.5 17.0306 4.5 17.0097 4.5 16.9887C4.5 16.9677 4.5 16.9468 4.5 16.9258C4.5 16.9048 4.5 16.8838 4.5 16.8629C4.5 16.8419 4.5 16.8209 4.5 16.7999C4.5 16.7789 4.5 16.7579 4.5 16.737C4.5 16.716 4.5 16.695 4.5 16.674C4.5 16.653 4.5 16.632 4.5 16.611C4.5 16.59 4.5 16.569 4.5 16.548C4.5 16.527 4.5 16.506 4.5 16.485C4.5 16.464 4.5 16.443 4.5 16.422C4.5 16.401 4.5 16.38 4.5 16.359C4.5 16.338 4.5 16.317 4.5 16.2959C4.5 16.2749 4.5 16.2539 4.5 16.2329C4.5 16.2119 4.5 16.1909 4.5 16.1699C4.5 16.1489 4.5 16.1278 4.5 16.1068C4.5 16.0858 4.5 16.0648 4.5 16.0438C4.5 16.0228 4.5 16.0017 4.5 15.9807C4.5 15.9597 4.5 15.9387 4.5 15.9177C4.5 15.8966 4.5 15.8756 4.5 15.8546C4.5 15.8336 4.5 15.8126 4.5 15.7916C4.5 15.7705 4.5 15.7495 4.5 15.7285C4.5 15.7075 4.5 15.6865 4.5 15.6654C4.5 15.6444 4.5 15.6234 4.5 15.6024C4.5 15.5814 4.5 15.5604 4.5 15.5394C4.5 15.5183 4.5 15.4973 4.5 15.4763C4.5 15.4553 4.5 15.4343 4.5 15.4133C4.5 15.3923 4.5 15.3712 4.5 15.3502C4.5 15.3292 4.5 15.3082 4.5 15.2872C4.5 15.2662 4.5 15.2452 4.5 15.2242C4.5 15.2032 4.5 15.1822 4.5 15.1612C4.5 15.1402 4.5 15.1192 4.5 15.0982C4.5 15.0772 4.5 15.0562 4.5 15.0352C4.5 15.0142 4.5 14.9932 4.5 14.9722C4.5 14.9512 4.5 14.9302 4.5 14.9093C4.5 14.8883 4.5 14.8673 4.5 14.8463C4.5 14.8253 4.5 14.8043 4.5 14.7834C4.5 14.7624 4.5 14.7414 4.5 14.7204C4.5 14.6995 4.5 14.6785 4.5 14.6575C4.5 14.6366 4.5 14.6156 4.5 14.5946C4.5 14.5737 4.5 14.5527 4.5 14.5318C4.5 14.5108 4.5 14.4899 4.5 14.4689C4.5 14.448 4.5 14.427 4.5 14.4061C4.5 14.3851 4.5 14.3642 4.5 14.3433C4.5 14.3223 4.5 14.3014 4.5 14.2805C4.5 14.2595 4.5 14.2386 4.5 14.2177C4.5 14.1968 4.5 14.1758 4.5 14.1549C4.5 14.134 4.5 14.1131 4.5 14.0922C4.5 14.0713 4.5 14.0504 4.5 14.0295C4.5 14.0086 4.5 13.9877 4.5 13.9668C4.5 13.9459 4.5 13.9251 4.5 13.9042C4.5 13.8833 4.5 13.8624 4.5 13.8416C4.5 13.8207 4.5 13.7998 4.5 13.779C4.5 13.7581 4.5 13.7372 4.5 13.7164C4.5 13.6955 4.5 13.6747 4.5 13.6539C4.5 13.633 4.5 13.6122 4.5 13.5914C4.5 13.5705 4.5 13.5497 4.5 13.5289C4.5 13.5081 4.5 13.4872 4.5 13.4664C4.5 13.4456 4.5 13.4248 4.5 13.404C4.5 13.3832 4.5 13.3624 4.5 13.3417C4.5 13.3209 4.5 13.3001 4.5 13.2793C4.5 13.2585 4.5 13.2378 4.5 13.217C4.5 13.1963 4.5 13.1755 4.5 13.1548C4.5 13.134 4.5 13.1133 4.5 13.0925C4.5 13.0718 4.5 13.0511 4.5 13.0303C4.5 13.0096 4.5 12.9889 4.5 12.9682C4.5 12.9475 4.5 12.9268 4.5 12.9061C4.5 12.8854 4.5 12.8647 4.5 12.844C4.5 12.8233 4.5 12.8027 4.5 12.782C4.5 12.7613 4.5 12.7407 4.5 12.72C4.5 12.6994 4.5 12.6787 4.5 12.6581C4.5 12.6374 4.5 12.6168 4.5 12.5962C4.5 12.5756 4.5 12.5549 4.5 12.5343C4.5 12.5137 4.5 12.4931 4.5 12.4725C4.5 12.452 4.5 12.4314 4.5 12.4108C4.5 12.3902 4.5 12.3697 4.5 12.3491C4.5 12.3285 4.5 12.308 4.5 12.2874C4.5 12.2669 4.5 12.2464 4.5 12.2258C4.5 12.2053 4.5 12.1848 4.5 12.1643C4.5 12.1438 4.5 12.1233 4.5 12.1028C4.5 12.0823 4.5 12.0618 4.5 12.0413C4.5 12.0209 4.5 12.0004 4.5 11.9799C4.5 11.9595 4.5 11.939 4.5 11.9186C4.5 11.8982 4.5 11.8777 4.5 11.8573C4.5 11.8369 4.5 11.8165 4.5 11.7961C4.5 11.7757 4.5 11.7553 4.5 11.7349C4.5 11.7146 4.5 11.6942 4.5 11.6738C4.5 11.6535 4.5 11.6331 4.5 11.6128C4.5 11.5924 4.5 11.5721 4.5 11.5518C4.5 11.5315 4.5 11.5112 4.5 11.4909C4.5 11.4706 4.5 11.4503 4.5 11.43C4.5 11.4097 4.5 11.3895 4.5 11.3692C4.5 11.3489 4.5 11.3287 4.5 11.3085C4.5 11.2882 4.5 11.268 4.5 11.2478C4.5 11.2276 4.5 11.2074 4.5 11.1872C4.5 11.167 4.5 11.1468 4.5 11.1266C4.5 11.1065 4.5 11.0863 4.5 11.0661C4.5 11.046 4.5 11.0259 4.5 11.0057C4.5 10.9856 4.5 10.9655 4.5 10.9454C4.5 10.9253 4.5 10.9052 4.5 10.8851C4.5 10.8651 4.5 10.845 4.5 10.8249C4.5 10.8049 4.5 10.7848 4.5 10.7648C4.5 10.7448 4.5 10.7248 4.5 10.7048C4.5 10.6847 4.5 10.6648 4.5 10.6448C4.5 10.6248 4.5 10.6048 4.5 10.5849C4.5 10.5649 4.5 10.545 4.5 10.525C4.5 10.5051 4.5 10.4852 4.5 10.4653C4.5 10.4454 4.5 10.4255 4.5 10.4056C4.5 10.3857 4.5 10.3659 4.5 10.346C4.5 10.3262 4.5 10.3063 4.5 10.2865C4.5 10.2667 4.5 10.2468 4.5 10.227C4.5 10.2072 4.5 10.1875 4.5 10.1677C4.5 10.1479 4.5 10.1281 4.5 10.1084C4.5 10.0887 4.5 10.0689 4.5 10.0492C4.5 10.0295 4.5 10.0098 4.5 9.99009C4.5 9.9704 4.5 9.95073 4.5 9.93106C4.5 9.9114 4.5 9.89175 4.5 9.87212C4.5 9.85249 4.5 9.83287 4.5 9.81326C4.5 9.79366 4.5 9.77407 4.5 9.75449C4.5 9.73491 4.5 9.71535 4.5 9.69581C4.5 9.67626 4.5 9.65673 4.5 9.63721C4.5 9.61769 4.5 9.59819 4.5 9.5787C4.5 9.55922 4.5 9.53975 4.5 9.52029C4.5 9.50083 4.5 9.48139 4.5 9.46197C4.5 9.44254 4.5 9.42313 4.5 9.40373C4.5 9.38434 4.5 9.36496 4.5 9.34559C4.5 9.32623 4.5 9.30688 4.5 9.28755C4.5 9.26822 4.5 9.2489 4.5 9.2296C4.5 9.2103 4.5 9.19101 4.5 9.17175C4.5 9.15248 4.5 9.13322 4.5 9.11399C4.5 9.09475 4.5 9.07553 4.5 9.05633C4.5 9.03712 4.5 9.01794 4.5 8.99877C4.5 8.97959 4.5 8.96044 4.5 8.9413C4.5 8.92216 4.5 8.90304 4.5 8.88394C4.5 8.86484 4.5 8.84575 4.5 8.82668C4.5 8.80761 4.5 8.78855 4.5 8.76952C4.5 8.75048 4.5 8.73146 4.5 8.71246C4.5 8.69346 4.5 8.67448 4.5 8.65551C4.5 8.63654 4.5 8.61759 4.5 8.59866C4.5 8.57973 4.5 8.56081 4.5 8.54192C4.5 8.52302 4.5 8.50414 4.5 8.48528C4.5 8.46642 4.5 8.44758 4.5 8.42875C4.5 8.40993 4.5 8.39112 4.5 8.37233C4.5 8.35354 4.5 8.33477 4.5 8.31602C4.5 8.29727 4.5 8.27853 4.5 8.25982C4.5 8.2411 4.5 8.2224 4.5 8.20372C4.5 8.18505 4.5 8.16639 4.5 8.14774C4.5 8.1291 4.5 8.11048 4.5 8.09188C4.5 8.07327 4.5 8.05469 4.5 8.03612C4.5 8.01756 4.5 7.99901 4.5 7.98048C4.5 7.96196 4.5 7.94345 4.5 7.92496C4.5 7.90647 4.5 7.888 4.5 7.86955C4.5 7.8511 4.5 7.83267 4.5 7.81426C4.5 7.79585 4.5 7.77746 4.5 7.75909C4.5 7.74072 4.5 7.72237 4.5 7.70403C4.5 7.6857 4.5 7.66739 4.5 7.6491C4.5 7.63081 4.5 7.61254 4.5 7.59429C4.5 7.57604 4.5 7.5578 4.5 7.53959C4.5 7.52138 4.5 7.50319 4.5 7.48502C4.5 7.46686 4.5 7.44871 4.5 7.43058C4.5 7.41245 4.5 7.39434 4.5 7.37626C4.5 7.35817 4.5 7.3401 4.5 7.32206C4.5 7.30401 4.5 7.28599 4.5 7.26799C4.5 7.24998 4.5 7.232 4.5 7.21404C4.5 7.19608 4.5 7.17814 4.5 7.16022C4.5 7.14231 4.5 7.12441 4.5 7.10654C4.5 7.08866 4.5 7.07081 4.5 7.05298C4.5 7.03515 4.5 7.01734 4.5 6.99955C4.5 6.98176 4.5 6.96399 4.5 6.94625C4.5 6.92851 4.5 6.91079 4.5 6.89309C4.5 6.87539 4.5 6.85771 4.5 6.84005C4.5 6.8224 4.5 6.80477 4.5 6.78716C4.5 6.76955 4.5 6.75196 4.5 6.73439C4.5 6.71683 4.5 6.69928 4.5 6.68176C4.5 6.66424 4.5 6.64675 4.5 6.62927C4.5 6.6118 4.5 6.59435 4.5 6.57692C4.5 6.55949 4.5 6.54209 4.5 6.5247C4.5 6.50732 4.5 6.48996 4.5 6.47263C4.5 6.45529 4.5 6.43798 4.5 6.42069C4.5 6.4034 4.5 6.38614 4.5 6.3689C4.5 6.35166 4.5 6.33444 4.5 6.31724C4.5 6.30005 4.5 6.28288 4.5 6.26573C4.5 6.24859 4.5 6.23147 4.5 6.21437C4.5 6.19727 4.5 6.1802 4.5 6.16315C4.5 6.1461 4.5 6.12907 4.5 6.11207C4.5 6.09507 4.5 6.07809 4.5 6.06114C4.5 6.04419 4.5 6.02726 4.5 6.01036C4.5 5.99345 4.5 5.97658 4.5 5.95972C4.5 5.94287 4.5 5.92604 4.5 5.90924C4.5 5.89243 4.5 5.87566 4.5 5.8589C4.5 5.84215 4.5 5.82542 4.5 5.80872C4.5 5.79201 4.5 5.77534 4.5 5.75868C4.5 5.74203 4.5 5.7254 4.5 5.7088C4.5 5.6922 4.5 5.67563 4.5 5.65908C4.5 5.64253 4.5 5.626 4.5 5.6095C4.5 5.59301 4.5 5.57653 4.5 5.56009C4.5 5.54364 4.5 5.52722 4.5 5.51082C4.5 5.49443 4.5 5.47806 4.5 5.46172C4.5 5.44538 4.5 5.42906 4.5 5.41277C4.5 5.39649 4.5 5.38022 4.5 5.36399C4.5 5.34775 4.5 5.33154 4.5 5.31536C4.5 5.29918 4.5 5.28302 4.5 5.26689C4.5 5.25076 4.5 5.23466 4.5 5.21859C4.5 5.20251 4.5 5.18646 4.5 5.17044C4.5 5.15442 4.5 5.13843 4.5 5.12246C4.5 5.1065 4.5 5.09056 4.5 5.07465C4.5 5.05874 4.5 5.04285 4.5 5.027C4.5 5.01114 4.5 4.99531 4.5 4.97951C4.5 4.96371 4.5 4.94794 4.5 4.93219C4.5 4.91645 4.5 4.90073 4.5 4.88504C4.5 4.86935 4.5 4.85369 4.5 4.83806C4.5 4.82243 4.5 4.80682 4.5 4.79125C4.5 4.77567 4.5 4.76012 4.5 4.74461C4.5 4.72909 4.5 4.7136 4.5 4.69814C4.5 4.68267 4.5 4.66724 4.5 4.65184C4.5 4.63643 4.5 4.62106 4.5 4.60571C4.5 4.59036 4.5 4.57505 4.5 4.55976C4.5 4.54447 4.5 4.52921 4.5 4.51398C4.5 4.49875 4.5 4.48355 4.5 4.46838C4.5 4.45321 4.5 4.43807 4.5 4.42296C4.5 4.40784 4.5 4.39276 4.5 4.37771C4.5 4.36266 4.5 4.34763 4.5 4.33264C4.5 4.31765 4.5 4.30268 4.5 4.28775C4.5 4.27282 4.5 4.25791 4.5 4.24304C4.5 4.22817 4.5 4.21333 4.5 4.19851C4.5 4.1837 4.5 4.16892 4.5 4.15417C4.5 4.13942 4.5 4.12469 4.5 4.11C4.5 4.09531 4.5 4.08065 4.5 4.06602C4.5 4.05139 4.5 4.0368 4.5 4.02223C4.5 4.00766 4.5 3.99312 4.5 3.97862C4.5 3.96411 4.5 3.94964 4.5 3.93519C4.5 3.92075 4.5 3.90634 4.5 3.89196C4.5 3.87758 4.5 3.86323 4.5 3.84891C4.5 3.83459 4.5 3.82031 4.5 3.80605C4.5 3.7918 4.5 3.77757 4.5 3.76338C4.5 3.74919 4.5 3.73503 4.5 3.7209C4.5 3.70678 4.5 3.69268 4.5 3.67862C4.5 3.66455 4.5 3.65052 4.5 3.63652C4.5 3.62252 4.5 3.60856 4.5 3.59462C4.5 3.58069 4.5 3.56679 4.5 3.55292C4.5 3.53905 4.5 3.52521 4.5 3.51141C4.5 3.4976 4.5 3.48383 4.5 3.47009C4.5 3.45635 4.5 3.44265 4.5 3.42897C4.5 3.4153 4.5 3.40166 4.5 3.38805C4.5 3.37445 4.5 3.36087 4.5 3.34733C4.5 3.33379 4.5 3.32028 4.5 3.30681C4.5 3.29334 4.5 3.2799 4.5 3.26649C4.5 3.25308 4.5 3.23971 4.5 3.22637C4.5 3.21303 4.5 3.19973 4.5 3.18645C4.5 3.17318 4.5 3.15994 4.5 3.14674C4.5 3.13354 4.5 3.12037 4.5 3.10723C4.5 3.09409 4.5 3.08099 4.5 3.06793C4.5 3.05486 4.5 3.04183 4.5 3.02883C4.5 3.01583 4.5 3.00286 4.5 2.98994C4.5 2.97701 4.5 2.96411 4.5 2.95125C4.5 2.93839 4.5 2.92557 4.5 2.91278C4.5 2.89999 4.5 2.88723 4.5 2.87451C4.5 2.86179 4.5 2.8491 4.5 2.83645C4.5 2.8238 4.5 2.81119 4.5 2.79861C4.5 2.78603 4.5 2.77349 4.5 2.76098C4.5 2.74847 4.5 2.736 4.5 2.72356C4.5 2.71112 4.5 2.69872 4.5 2.68635C4.5 2.67399 4.5 2.66166 4.5 2.64936C4.5 2.63707 4.5 2.62481 4.5 2.61259C4.5 2.60037 4.5 2.58818 4.5 2.57603C4.5 2.56388 4.5 2.55177 4.5 2.53969C4.5 2.52761 4.5 2.51557 4.5 2.50357C4.5 2.49156 4.5 2.47959 4.5 2.46766C4.5 2.45573 4.5 2.44384 4.5 2.43198C4.5 2.42012 4.5 2.4083 4.5 2.39652C4.5 2.38473 4.5 2.37299 4.5 2.36128C4.5 2.34957 4.5 2.3379 4.5 2.32626C4.5 2.31463 4.5 2.30303 4.5 2.29147C4.5 2.27991 4.5 2.26838 4.5 2.2569C4.5 2.24541 4.5 2.23396 4.5 2.22255C4.5 2.21114 4.5 2.19977 4.5 2.18844C4.5 2.1771 4.5 2.16581 4.5 2.15455C4.5 2.14329 4.5 2.13207 4.5 2.12089C4.5 2.1097 4.5 2.09856 4.5 2.08745C4.5 2.07635 4.5 2.06528 4.5 2.05425C4.5 2.04322 4.5 2.03223 4.5 2.02128C4.5 2.01033 4.5 1.99941 4.5 1.98854C4.5 1.97766 4.5 1.96683 4.5 1.95603C4.5 1.94523 4.5 1.93447 4.5 1.92376C4.5 1.91304 4.5 1.90236 4.5 1.89172C4.5 1.88107 4.5 1.87047 4.5 1.85991C4.5 1.84935 4.5 1.83883 4.5 1.82834C4.5 1.81786 4.5 1.80742 4.5 1.79701C4.5 1.78661 4.5 1.77624 4.5 1.76592C4.5 1.75559 4.5 1.74531 4.5 1.73506C4.5 1.72482 4.5 1.71461 4.5 1.70445C4.5 1.69428 4.5 1.68416 4.5 1.67407C4.5 1.66399 4.5 1.65394 4.5 1.64394C4.5 1.63394 4.5 1.62397 4.5 1.61405C4.5 1.60413 4.5 1.59424 4.5 1.5844C4.5 1.57456 4.5 1.56476 4.5 1.555C4.5 1.54524 4.5 1.53552 4.5 1.52584C4.5 1.51616 4.5 1.50652 4.5 1.49693C4.5 1.48733 4.5 1.47778 4.5 1.46826C4.5 1.45875 4.5 1.44928 4.5 1.43984C4.5 1.43041 4.5 1.42102 4.5 1.41167C4.5 1.40233 4.5 1.39302 4.5 1.38376C4.5 1.37449 4.5 1.36527 4.5 1.35609C4.5 1.3469 4.5 1.33776 4.5 1.32867C4.5 1.31957 4.5 1.31051 4.5 1.3015C4.5 1.29249 4.5 1.28352 4.5 1.27459C4.5 1.26566 4.5 1.25677 4.5 1.24793C4.5 1.23909 4.5 1.23028 4.5 1.22152C4.5 1.21277 4.5 1.20405 4.5 1.19538C4.5 1.1867 4.5 1.17807 4.5 1.16948C4.5 1.1609 4.5 1.15235 4.5 1.14385C4.5 1.13535 4.5 1.12689 4.5 1.11847C4.5 1.11006 4.5 1.10169 4.5 1.09336C4.5 1.08503 4.5 1.07674 4.5 1.0685C4.5 1.06026 4.5 1.05206 4.5 1.0439C4.5 1.03575 4.5 1.02764 4.5 1.01957C4.5 1.0115 4.5 1.00348 4.5 0.995499C4.5 0.987519 4.5 0.979583 4.5 0.971691C4.5 0.963799 4.5 0.955952 4.5 0.948148C4.5 0.940345 4.5 0.932586 4.5 0.924871C4.5 0.917156 4.5 0.909486 4.5 0.90186C4.5 0.894234 4.5 0.886653 4.5 0.879116C4.5 0.871579 4.5 0.864088 4.5 0.85664C4.5 0.849193 4.5 0.841791 4.5 0.834434C4.5 0.827077 4.5 0.819764 4.5 0.812497C4.5 0.80523 4.5 0.798008 4.5 0.790831C4.5 0.783654 4.5 0.776523 4.5 0.769437C4.5 0.762351 4.5 0.75531 4.5 0.748315C4.5 0.74132 4.5 0.734371 4.5 0.727467C4.5 0.720563 4.5 0.713705 4.5 0.706893C4.5 0.700081 4.5 0.693315 4.5 0.686595C4.5 0.679875 4.5 0.6732 4.5 0.666572C4.5 0.659944 4.5 0.653362 4.5 0.646827C4.5 0.640291 4.5 0.633802 4.5 0.627359C4.5 0.620917 4.5 0.61452 4.5 0.608171C4.5 0.601821 4.5 0.595518 4.5 0.589262C4.5 0.583005 4.5 0.576796 4.5 0.570633C4.5 0.564471 4.5 0.558355 4.5 0.552286C4.5 0.546218 4.5 0.540196 4.5 0.534222C4.5 0.528247 4.5 0.52232 4.5 0.51644C4.5 0.510561 4.5 0.504728 4.5 0.498943C4.5 0.493158 4.5 0.487421 4.5 0.481731C4.5 0.476041 4.5 0.470399 4.5 0.464805C4.5 0.45921 4.5 0.453664 4.5 0.448165C4.5 0.442666 4.5 0.437216 4.5 0.431813C4.5 0.426411 4.5 0.421056 4.5 0.41575C4.5 0.410444 4.5 0.405186 4.5 0.399976C4.5 0.394767 4.5 0.389605 4.5 0.384493C4.5 0.37938 4.5 0.374316 4.5 0.369301C4.5 0.364285 4.5 0.359318 4.5 0.354401C4.5 0.349483 4.5 0.344614 4.5 0.339794C4.5 0.334974 4.5 0.330202 4.5 0.32548C4.5 0.320759 4.5 0.316086 4.5 0.311462C4.5 0.306839 4.5 0.302264 4.5 0.29774C4.5 0.293215 4.5 0.288739 4.5 0.284313C4.5 0.279888 4.5 0.275511 4.5 0.271185C4.5 0.266858 4.5 0.262582 4.5 0.258355C4.5 0.254128 4.5 0.249951 4.5 0.245824C4.5 0.241697 4.5 0.23762 4.5 0.233593C4.5 0.229566 4.5 0.225589 4.5 0.221663C4.5 0.217737 4.5 0.213861 4.5 0.210035C4.5 0.20621 4.5 0.202434 4.5 0.19871C4.5 0.194985 4.5 0.191312 4.5 0.187689C4.5 0.184065 4.5 0.180493 4.5 0.176972C4.5 0.17345 4.5 0.16998 4.5 0.16656C4.5 0.163141 4.5 0.159772 4.5 0.156455C4.5 0.153138 4.5 0.149872 4.5 0.146657C4.5 0.143443 4.5 0.140279 4.5 0.137168C4.5 0.134056 4.5 0.130996 4.5 0.127987C4.5 0.124978 4.5 0.122021 4.5 0.119116C4.5 0.116211 4.5 0.113358 4.5 0.110556C4.5 0.107755 4.5 0.105005 4.5 0.102308C4.5 0.0996107 4.5 0.0969655 4.5 0.0943724C4.5 0.0917794 4.5 0.0892386 4.5 0.0867502C4.5 0.0842618 4.5 0.0818258 4.5 0.0794423C4.5 0.0770589 4.5 0.0747279 4.5 0.0724497C4.5 0.0701715 4.5 0.0679459 4.5 0.0657732C4.5 0.0636005 4.5 0.0614806 4.5 0.0594137C4.5 0.0573468 4.5 0.0553329 4.5 0.0533721C4.5 0.0514114 4.5 0.0495037 4.5 0.0476494C4.5 0.045795 4.5 0.0439939 4.5 0.0422463C4.5 0.0404986 4.5 0.0388044 4.5 0.0371637C4.5 0.0355231 4.5 0.033936 4.5 0.0324027C4.5 0.0308694 4.5 0.0293897 4.5 0.027964C4.5 0.0265382 4.5 0.0251664 4.5 0.0238485C4.5 0.0225307 4.5 0.0212669 4.5 0.0200572C4.5 0.0188475 4.5 0.017692 4.5 0.0165909C4.5 0.0154897 4.5 0.0144429 4.5 0.0134505C4.5 0.0124581 4.5 0.0115202 4.5 0.0106369C4.5 0.00975355 4.5 0.00892486 4.5 0.00815093C4.5 0.007377 4.5 0.00665783 4.5 0.00599358C4.5 0.00532932 4.5 0.00471997 4.5 0.00416568C4.5 0.0036114 4.5 0.00311217 4.5 0.00266814C4.5 0.00222412 4.5 0.0018353 4.5 0.00150184C4.5 0.00116838 4.5 0.000890272 4.5 0.000667668C4.5 0.000445064 4.5 0.000277962 4.5 0.000166512C4.5 5.50621e-05 4.5 -7.37111e-07 4 -7.15256e-07C3.5 -6.934e-07 3.5 5.51058e-05 3.5 0.000166556C3.5 0.000278006 3.5 0.000445107 3.5 0.000667712C3.5 0.000890316 3.5 0.00116842 3.5 0.00150188C3.5 0.00183535 3.5 0.00222416 3.5 0.00266819C3.5 0.00311221 3.5 0.00361144 3.5 0.00416573C3.5 0.00472002 3.5 0.00532936 3.5 0.00599362C3.5 0.00665788 3.5 0.00737704 3.5 0.00815097C3.5 0.0089249 3.5 0.0097536 3.5 0.0106369C3.5 0.0115202 3.5 0.0124581 3.5 0.0134505C3.5 0.0144429 3.5 0.0154898 3.5 0.0165909C3.5 0.0176921 3.5 0.0188476 3.5 0.0200572C3.5 0.0212669 3.5 0.0225307 3.5 0.0238486C3.5 0.0251664 3.5 0.0265383 3.5 0.027964C3.5 0.0293898 3.5 0.0308694 3.5 0.0324027C3.5 0.0339361 3.5 0.0355231 3.5 0.0371638C3.5 0.0388044 3.5 0.0404987 3.5 0.0422463C3.5 0.043994 3.5 0.045795 3.5 0.0476494C3.5 0.0495038 3.5 0.0514114 3.5 0.0533722C3.5 0.055333 3.5 0.0573469 3.5 0.0594138C3.5 0.0614806 3.5 0.0636005 3.5 0.0657732C3.5 0.0679459 3.5 0.0701715 3.5 0.0724497C3.5 0.074728 3.5 0.0770589 3.5 0.0794424C3.5 0.0818258 3.5 0.0842618 3.5 0.0867502C3.5 0.0892386 3.5 0.0917794 3.5 0.0943725C3.5 0.0969655 3.5 0.0996108 3.5 0.102308C3.5 0.105006 3.5 0.107755 3.5 0.110556C3.5 0.113358 3.5 0.116211 3.5 0.119116C3.5 0.122022 3.5 0.124978 3.5 0.127987C3.5 0.130996 3.5 0.134056 3.5 0.137168C3.5 0.14028 3.5 0.143443 3.5 0.146657C3.5 0.149872 3.5 0.153138 3.5 0.156455C3.5 0.159772 3.5 0.163141 3.5 0.16656C3.5 0.16998 3.5 0.17345 3.5 0.176972C3.5 0.180493 3.5 0.184065 3.5 0.187689C3.5 0.191312 3.5 0.194986 3.5 0.19871C3.5 0.202434 3.5 0.20621 3.5 0.210035C3.5 0.213861 3.5 0.217737 3.5 0.221663C3.5 0.225589 3.5 0.229566 3.5 0.233593C3.5 0.23762 3.5 0.241697 3.5 0.245824C3.5 0.249951 3.5 0.254128 3.5 0.258355C3.5 0.262582 3.5 0.266858 3.5 0.271185C3.5 0.275511 3.5 0.279888 3.5 0.284314C3.5 0.288739 3.5 0.293215 3.5 0.29774C3.5 0.302264 3.5 0.306839 3.5 0.311462C3.5 0.316086 3.5 0.320759 3.5 0.325481C3.5 0.330202 3.5 0.334974 3.5 0.339794C3.5 0.344614 3.5 0.349483 3.5 0.354401C3.5 0.359319 3.5 0.364285 3.5 0.369301C3.5 0.374316 3.5 0.37938 3.5 0.384493C3.5 0.389606 3.5 0.394767 3.5 0.399976C3.5 0.405186 3.5 0.410444 3.5 0.41575C3.5 0.421056 3.5 0.426411 3.5 0.431813C3.5 0.437216 3.5 0.442667 3.5 0.448165C3.5 0.453664 3.5 0.45921 3.5 0.464805C3.5 0.470399 3.5 0.476041 3.5 0.481731C3.5 0.487421 3.5 0.493158 3.5 0.498943C3.5 0.504728 3.5 0.510561 3.5 0.51644C3.5 0.52232 3.5 0.528247 3.5 0.534222C3.5 0.540196 3.5 0.546218 3.5 0.552286C3.5 0.558355 3.5 0.564471 3.5 0.570633C3.5 0.576796 3.5 0.583005 3.5 0.589262C3.5 0.595518 3.5 0.601821 3.5 0.608171C3.5 0.61452 3.5 0.620917 3.5 0.627359C3.5 0.633802 3.5 0.640291 3.5 0.646827C3.5 0.653363 3.5 0.659944 3.5 0.666572C3.5 0.6732 3.5 0.679875 3.5 0.686595C3.5 0.693315 3.5 0.700081 3.5 0.706893C3.5 0.713706 3.5 0.720563 3.5 0.727467C3.5 0.734371 3.5 0.74132 3.5 0.748315C3.5 0.75531 3.5 0.762351 3.5 0.769437C3.5 0.776523 3.5 0.783654 3.5 0.790831C3.5 0.798008 3.5 0.80523 3.5 0.812497C3.5 0.819764 3.5 0.827077 3.5 0.834434C3.5 0.841791 3.5 0.849193 3.5 0.85664C3.5 0.864088 3.5 0.871579 3.5 0.879116C3.5 0.886653 3.5 0.894234 3.5 0.90186C3.5 0.909486 3.5 0.917156 3.5 0.924871C3.5 0.932586 3.5 0.940345 3.5 0.948148C3.5 0.955952 3.5 0.963799 3.5 0.971691C3.5 0.979583 3.5 0.987519 3.5 0.995499C3.5 1.00348 3.5 1.0115 3.5 1.01957C3.5 1.02764 3.5 1.03575 3.5 1.0439C3.5 1.05206 3.5 1.06026 3.5 1.0685C3.5 1.07674 3.5 1.08503 3.5 1.09336C3.5 1.10169 3.5 1.11006 3.5 1.11847C3.5 1.12689 3.5 1.13535 3.5 1.14385C3.5 1.15235 3.5 1.1609 3.5 1.16948C3.5 1.17807 3.5 1.1867 3.5 1.19538C3.5 1.20405 3.5 1.21277 3.5 1.22152C3.5 1.23028 3.5 1.23909 3.5 1.24793C3.5 1.25677 3.5 1.26566 3.5 1.27459C3.5 1.28352 3.5 1.29249 3.5 1.3015C3.5 1.31051 3.5 1.31957 3.5 1.32867C3.5 1.33776 3.5 1.3469 3.5 1.35609C3.5 1.36527 3.5 1.37449 3.5 1.38376C3.5 1.39302 3.5 1.40233 3.5 1.41167C3.5 1.42102 3.5 1.43041 3.5 1.43984C3.5 1.44928 3.5 1.45875 3.5 1.46826C3.5 1.47778 3.5 1.48733 3.5 1.49693C3.5 1.50652 3.5 1.51616 3.5 1.52584C3.5 1.53552 3.5 1.54524 3.5 1.555C3.5 1.56476 3.5 1.57456 3.5 1.5844C3.5 1.59424 3.5 1.60413 3.5 1.61405C3.5 1.62397 3.5 1.63394 3.5 1.64394C3.5 1.65394 3.5 1.66399 3.5 1.67407C3.5 1.68416 3.5 1.69428 3.5 1.70445C3.5 1.71461 3.5 1.72482 3.5 1.73506C3.5 1.74531 3.5 1.75559 3.5 1.76592C3.5 1.77624 3.5 1.78661 3.5 1.79701C3.5 1.80742 3.5 1.81786 3.5 1.82834C3.5 1.83883 3.5 1.84935 3.5 1.85991C3.5 1.87047 3.5 1.88107 3.5 1.89172C3.5 1.90236 3.5 1.91304 3.5 1.92376C3.5 1.93447 3.5 1.94523 3.5 1.95603C3.5 1.96683 3.5 1.97766 3.5 1.98854C3.5 1.99941 3.5 2.01033 3.5 2.02128C3.5 2.03223 3.5 2.04322 3.5 2.05425C3.5 2.06528 3.5 2.07635 3.5 2.08745C3.5 2.09856 3.5 2.1097 3.5 2.12089C3.5 2.13207 3.5 2.14329 3.5 2.15455C3.5 2.16581 3.5 2.1771 3.5 2.18844C3.5 2.19977 3.5 2.21114 3.5 2.22255C3.5 2.23396 3.5 2.24541 3.5 2.2569C3.5 2.26838 3.5 2.27991 3.5 2.29147C3.5 2.30303 3.5 2.31463 3.5 2.32626C3.5 2.3379 3.5 2.34957 3.5 2.36128C3.5 2.37299 3.5 2.38473 3.5 2.39652C3.5 2.4083 3.5 2.42012 3.5 2.43198C3.5 2.44384 3.5 2.45573 3.5 2.46766C3.5 2.47959 3.5 2.49156 3.5 2.50357C3.5 2.51557 3.5 2.52761 3.5 2.53969C3.5 2.55177 3.5 2.56388 3.5 2.57603C3.5 2.58818 3.5 2.60037 3.5 2.61259C3.5 2.62481 3.5 2.63707 3.5 2.64936C3.5 2.66166 3.5 2.67399 3.5 2.68635C3.5 2.69872 3.5 2.71112 3.5 2.72356C3.5 2.736 3.5 2.74847 3.5 2.76098C3.5 2.77349 3.5 2.78603 3.5 2.79861C3.5 2.81119 3.5 2.8238 3.5 2.83645C3.5 2.8491 3.5 2.86179 3.5 2.87451C3.5 2.88723 3.5 2.89999 3.5 2.91278C3.5 2.92557 3.5 2.93839 3.5 2.95125C3.5 2.96411 3.5 2.97701 3.5 2.98994C3.5 3.00286 3.5 3.01583 3.5 3.02883C3.5 3.04183 3.5 3.05486 3.5 3.06793C3.5 3.08099 3.5 3.09409 3.5 3.10723C3.5 3.12037 3.5 3.13354 3.5 3.14674C3.5 3.15994 3.5 3.17318 3.5 3.18645C3.5 3.19973 3.5 3.21303 3.5 3.22637C3.5 3.23971 3.5 3.25308 3.5 3.26649C3.5 3.2799 3.5 3.29334 3.5 3.30681C3.5 3.32028 3.5 3.33379 3.5 3.34733C3.5 3.36087 3.5 3.37445 3.5 3.38805C3.5 3.40166 3.5 3.4153 3.5 3.42897C3.5 3.44265 3.5 3.45635 3.5 3.47009C3.5 3.48383 3.5 3.4976 3.5 3.51141C3.5 3.52521 3.5 3.53905 3.5 3.55292C3.5 3.56679 3.5 3.58069 3.5 3.59462C3.5 3.60856 3.5 3.62252 3.5 3.63652C3.5 3.65052 3.5 3.66455 3.5 3.67862C3.5 3.69268 3.5 3.70678 3.5 3.7209C3.5 3.73503 3.5 3.74919 3.5 3.76338C3.5 3.77757 3.5 3.7918 3.5 3.80605C3.5 3.82031 3.5 3.83459 3.5 3.84891C3.5 3.86323 3.5 3.87758 3.5 3.89196C3.5 3.90634 3.5 3.92075 3.5 3.93519C3.5 3.94964 3.5 3.96411 3.5 3.97862C3.5 3.99312 3.5 4.00766 3.5 4.02223C3.5 4.0368 3.5 4.05139 3.5 4.06602C3.5 4.08065 3.5 4.09531 3.5 4.11C3.5 4.12469 3.5 4.13942 3.5 4.15417C3.5 4.16892 3.5 4.1837 3.5 4.19851C3.5 4.21333 3.5 4.22817 3.5 4.24304C3.5 4.25791 3.5 4.27282 3.5 4.28775C3.5 4.30268 3.5 4.31765 3.5 4.33264C3.5 4.34763 3.5 4.36266 3.5 4.37771C3.5 4.39276 3.5 4.40784 3.5 4.42296C3.5 4.43807 3.5 4.45321 3.5 4.46838C3.5 4.48355 3.5 4.49875 3.5 4.51398C3.5 4.52921 3.5 4.54447 3.5 4.55976C3.5 4.57505 3.5 4.59036 3.5 4.60571C3.5 4.62106 3.5 4.63643 3.5 4.65184C3.5 4.66724 3.5 4.68267 3.5 4.69814C3.5 4.7136 3.5 4.72909 3.5 4.74461C3.5 4.76012 3.5 4.77567 3.5 4.79125C3.5 4.80682 3.5 4.82243 3.5 4.83806C3.5 4.85369 3.5 4.86935 3.5 4.88504C3.5 4.90073 3.5 4.91645 3.5 4.93219C3.5 4.94794 3.5 4.96371 3.5 4.97951C3.5 4.99531 3.5 5.01114 3.5 5.027C3.5 5.04285 3.5 5.05874 3.5 5.07465C3.5 5.09056 3.5 5.1065 3.5 5.12246C3.5 5.13843 3.5 5.15442 3.5 5.17044C3.5 5.18646 3.5 5.20251 3.5 5.21859C3.5 5.23466 3.5 5.25076 3.5 5.26689C3.5 5.28302 3.5 5.29918 3.5 5.31536C3.5 5.33154 3.5 5.34775 3.5 5.36399C3.5 5.38022 3.5 5.39649 3.5 5.41277C3.5 5.42906 3.5 5.44538 3.5 5.46172C3.5 5.47806 3.5 5.49443 3.5 5.51083C3.5 5.52722 3.5 5.54364 3.5 5.56009C3.5 5.57653 3.5 5.59301 3.5 5.6095C3.5 5.626 3.5 5.64253 3.5 5.65908C3.5 5.67563 3.5 5.6922 3.5 5.7088C3.5 5.7254 3.5 5.74203 3.5 5.75868C3.5 5.77534 3.5 5.79201 3.5 5.80872C3.5 5.82542 3.5 5.84215 3.5 5.8589C3.5 5.87566 3.5 5.89243 3.5 5.90924C3.5 5.92604 3.5 5.94287 3.5 5.95972C3.5 5.97658 3.5 5.99345 3.5 6.01036C3.5 6.02726 3.5 6.04419 3.5 6.06114C3.5 6.07809 3.5 6.09507 3.5 6.11207C3.5 6.12907 3.5 6.1461 3.5 6.16315C3.5 6.1802 3.5 6.19727 3.5 6.21437C3.5 6.23147 3.5 6.24859 3.5 6.26573C3.5 6.28288 3.5 6.30005 3.5 6.31724C3.5 6.33444 3.5 6.35166 3.5 6.3689C3.5 6.38614 3.5 6.4034 3.5 6.42069C3.5 6.43798 3.5 6.45529 3.5 6.47263C3.5 6.48996 3.5 6.50732 3.5 6.5247C3.5 6.54209 3.5 6.55949 3.5 6.57692C3.5 6.59435 3.5 6.6118 3.5 6.62927C3.5 6.64675 3.5 6.66424 3.5 6.68176C3.5 6.69928 3.5 6.71683 3.5 6.73439C3.5 6.75196 3.5 6.76955 3.5 6.78716C3.5 6.80477 3.5 6.8224 3.5 6.84005C3.5 6.85771 3.5 6.87539 3.5 6.89309C3.5 6.91079 3.5 6.92851 3.5 6.94625C3.5 6.964 3.5 6.98176 3.5 6.99955C3.5 7.01734 3.5 7.03515 3.5 7.05298C3.5 7.07081 3.5 7.08866 3.5 7.10654C3.5 7.12441 3.5 7.14231 3.5 7.16022C3.5 7.17814 3.5 7.19608 3.5 7.21404C3.5 7.232 3.5 7.24998 3.5 7.26799C3.5 7.28599 3.5 7.30401 3.5 7.32206C3.5 7.3401 3.5 7.35817 3.5 7.37626C3.5 7.39434 3.5 7.41245 3.5 7.43058C3.5 7.44871 3.5 7.46686 3.5 7.48502C3.5 7.50319 3.5 7.52138 3.5 7.53959C3.5 7.5578 3.5 7.57604 3.5 7.59429C3.5 7.61254 3.5 7.63081 3.5 7.6491C3.5 7.66739 3.5 7.6857 3.5 7.70404C3.5 7.72237 3.5 7.74072 3.5 7.75909C3.5 7.77746 3.5 7.79585 3.5 7.81426C3.5 7.83267 3.5 7.8511 3.5 7.86955C3.5 7.888 3.5 7.90647 3.5 7.92496C3.5 7.94345 3.5 7.96196 3.5 7.98048C3.5 7.99901 3.5 8.01756 3.5 8.03612C3.5 8.05469 3.5 8.07327 3.5 8.09188C3.5 8.11048 3.5 8.1291 3.5 8.14774C3.5 8.16639 3.5 8.18505 3.5 8.20372C3.5 8.2224 3.5 8.2411 3.5 8.25982C3.5 8.27853 3.5 8.29727 3.5 8.31602C3.5 8.33477 3.5 8.35354 3.5 8.37233C3.5 8.39112 3.5 8.40993 3.5 8.42875C3.5 8.44758 3.5 8.46642 3.5 8.48528C3.5 8.50414 3.5 8.52302 3.5 8.54192C3.5 8.56081 3.5 8.57973 3.5 8.59866C3.5 8.61759 3.5 8.63654 3.5 8.65551C3.5 8.67448 3.5 8.69346 3.5 8.71246C3.5 8.73146 3.5 8.75048 3.5 8.76952C3.5 8.78855 3.5 8.80761 3.5 8.82668C3.5 8.84575 3.5 8.86484 3.5 8.88394C3.5 8.90304 3.5 8.92216 3.5 8.9413C3.5 8.96044 3.5 8.97959 3.5 8.99877C3.5 9.01794 3.5 9.03712 3.5 9.05633C3.5 9.07553 3.5 9.09475 3.5 9.11399C3.5 9.13322 3.5 9.15248 3.5 9.17175C3.5 9.19101 3.5 9.2103 3.5 9.2296C3.5 9.2489 3.5 9.26822 3.5 9.28755C3.5 9.30688 3.5 9.32623 3.5 9.34559C3.5 9.36496 3.5 9.38434 3.5 9.40373C3.5 9.42313 3.5 9.44254 3.5 9.46197C3.5 9.48139 3.5 9.50083 3.5 9.52029C3.5 9.53975 3.5 9.55922 3.5 9.5787C3.5 9.59819 3.5 9.61769 3.5 9.63721C3.5 9.65673 3.5 9.67626 3.5 9.69581C3.5 9.71535 3.5 9.73491 3.5 9.75449C3.5 9.77407 3.5 9.79366 3.5 9.81326C3.5 9.83287 3.5 9.85249 3.5 9.87212C3.5 9.89175 3.5 9.9114 3.5 9.93106C3.5 9.95073 3.5 9.9704 3.5 9.99009C3.5 10.0098 3.5 10.0295 3.5 10.0492C3.5 10.0689 3.5 10.0887 3.5 10.1084C3.5 10.1281 3.5 10.1479 3.5 10.1677C3.5 10.1875 3.5 10.2072 3.5 10.227C3.5 10.2468 3.5 10.2667 3.5 10.2865C3.5 10.3063 3.5 10.3262 3.5 10.346C3.5 10.3659 3.5 10.3857 3.5 10.4056C3.5 10.4255 3.5 10.4454 3.5 10.4653C3.5 10.4852 3.5 10.5051 3.5 10.525C3.5 10.545 3.5 10.5649 3.5 10.5849C3.5 10.6048 3.5 10.6248 3.5 10.6448C3.5 10.6648 3.5 10.6847 3.5 10.7048C3.5 10.7248 3.5 10.7448 3.5 10.7648C3.5 10.7848 3.5 10.8049 3.5 10.8249C3.5 10.845 3.5 10.8651 3.5 10.8851C3.5 10.9052 3.5 10.9253 3.5 10.9454C3.5 10.9655 3.5 10.9856 3.5 11.0057C3.5 11.0259 3.5 11.046 3.5 11.0661C3.5 11.0863 3.5 11.1065 3.5 11.1266C3.5 11.1468 3.5 11.167 3.5 11.1872C3.5 11.2074 3.5 11.2276 3.5 11.2478C3.5 11.268 3.5 11.2882 3.5 11.3085C3.5 11.3287 3.5 11.3489 3.5 11.3692C3.5 11.3895 3.5 11.4097 3.5 11.43C3.5 11.4503 3.5 11.4706 3.5 11.4909C3.5 11.5112 3.5 11.5315 3.5 11.5518C3.5 11.5721 3.5 11.5924 3.5 11.6128C3.5 11.6331 3.5 11.6535 3.5 11.6738C3.5 11.6942 3.5 11.7146 3.5 11.7349C3.5 11.7553 3.5 11.7757 3.5 11.7961C3.5 11.8165 3.5 11.8369 3.5 11.8573C3.5 11.8777 3.5 11.8982 3.5 11.9186C3.5 11.939 3.5 11.9595 3.5 11.9799C3.5 12.0004 3.5 12.0209 3.5 12.0413C3.5 12.0618 3.5 12.0823 3.5 12.1028C3.5 12.1233 3.5 12.1438 3.5 12.1643C3.5 12.1848 3.5 12.2053 3.5 12.2258C3.5 12.2464 3.5 12.2669 3.5 12.2874C3.5 12.308 3.5 12.3285 3.5 12.3491C3.5 12.3697 3.5 12.3902 3.5 12.4108C3.5 12.4314 3.5 12.452 3.5 12.4725C3.5 12.4931 3.5 12.5137 3.5 12.5343C3.5 12.5549 3.5 12.5756 3.5 12.5962C3.5 12.6168 3.5 12.6374 3.5 12.6581C3.5 12.6787 3.5 12.6994 3.5 12.72C3.5 12.7407 3.5 12.7613 3.5 12.782C3.5 12.8027 3.5 12.8233 3.5 12.844C3.5 12.8647 3.5 12.8854 3.5 12.9061C3.5 12.9268 3.5 12.9475 3.5 12.9682C3.5 12.9889 3.5 13.0096 3.5 13.0303C3.5 13.0511 3.5 13.0718 3.5 13.0925C3.5 13.1133 3.5 13.134 3.5 13.1548C3.5 13.1755 3.5 13.1963 3.5 13.217C3.5 13.2378 3.5 13.2585 3.5 13.2793C3.5 13.3001 3.5 13.3209 3.5 13.3417C3.5 13.3624 3.5 13.3832 3.5 13.404C3.5 13.4248 3.5 13.4456 3.5 13.4664C3.5 13.4872 3.5 13.5081 3.5 13.5289C3.5 13.5497 3.5 13.5705 3.5 13.5914C3.5 13.6122 3.5 13.633 3.5 13.6539C3.5 13.6747 3.5 13.6955 3.5 13.7164C3.5 13.7372 3.5 13.7581 3.5 13.779C3.5 13.7998 3.5 13.8207 3.5 13.8416C3.5 13.8624 3.5 13.8833 3.5 13.9042C3.5 13.9251 3.5 13.9459 3.5 13.9668C3.5 13.9877 3.5 14.0086 3.5 14.0295C3.5 14.0504 3.5 14.0713 3.5 14.0922C3.5 14.1131 3.5 14.134 3.5 14.1549C3.5 14.1758 3.5 14.1968 3.5 14.2177C3.5 14.2386 3.5 14.2595 3.5 14.2805C3.5 14.3014 3.5 14.3223 3.5 14.3433C3.5 14.3642 3.5 14.3851 3.5 14.4061C3.5 14.427 3.5 14.448 3.5 14.4689C3.5 14.4899 3.5 14.5108 3.5 14.5318C3.5 14.5527 3.5 14.5737 3.5 14.5946C3.5 14.6156 3.5 14.6366 3.5 14.6575C3.5 14.6785 3.5 14.6995 3.5 14.7204C3.5 14.7414 3.5 14.7624 3.5 14.7834C3.5 14.8043 3.5 14.8253 3.5 14.8463C3.5 14.8673 3.5 14.8883 3.5 14.9093C3.5 14.9302 3.5 14.9512 3.5 14.9722C3.5 14.9932 3.5 15.0142 3.5 15.0352C3.5 15.0562 3.5 15.0772 3.5 15.0982C3.5 15.1192 3.5 15.1402 3.5 15.1612C3.5 15.1822 3.5 15.2032 3.5 15.2242C3.5 15.2452 3.5 15.2662 3.5 15.2872C3.5 15.3082 3.5 15.3292 3.5 15.3502C3.5 15.3712 3.5 15.3923 3.5 15.4133C3.5 15.4343 3.5 15.4553 3.5 15.4763C3.5 15.4973 3.5 15.5183 3.5 15.5394C3.5 15.5604 3.5 15.5814 3.5 15.6024C3.5 15.6234 3.5 15.6444 3.5 15.6655C3.5 15.6865 3.5 15.7075 3.5 15.7285C3.5 15.7495 3.5 15.7705 3.5 15.7916C3.5 15.8126 3.5 15.8336 3.5 15.8546C3.5 15.8756 3.5 15.8966 3.5 15.9177C3.5 15.9387 3.5 15.9597 3.5 15.9807C3.5 16.0017 3.5 16.0228 3.5 16.0438C3.5 16.0648 3.5 16.0858 3.5 16.1068C3.5 16.1278 3.5 16.1489 3.5 16.1699C3.5 16.1909 3.5 16.2119 3.5 16.2329C3.5 16.2539 3.5 16.2749 3.5 16.2959C3.5 16.317 3.5 16.338 3.5 16.359C3.5 16.38 3.5 16.401 3.5 16.422C3.5 16.443 3.5 16.464 3.5 16.485C3.5 16.506 3.5 16.527 3.5 16.548C3.5 16.569 3.5 16.59 3.5 16.611C3.5 16.632 3.5 16.653 3.5 16.674C3.5 16.695 3.5 16.716 3.5 16.737C3.5 16.7579 3.5 16.7789 3.5 16.7999C3.5 16.8209 3.5 16.8419 3.5 16.8629C3.5 16.8838 3.5 16.9048 3.5 16.9258C3.5 16.9468 3.5 16.9677 3.5 16.9887C3.5 17.0097 3.5 17.0306 3.5 17.0516C3.5 17.0726 3.5 17.0935 3.5 17.1145C3.5 17.1354 3.5 17.1564 3.5 17.1773C3.5 17.1983 3.5 17.2192 3.5 17.2402C3.5 17.2611 3.5 17.2821 3.5 17.303C3.5 17.3239 3.5 17.3449 3.5 17.3658C3.5 17.3867 3.5 17.4077 3.5 17.4286C3.5 17.4495 3.5 17.4704 3.5 17.4913C3.5 17.5123 3.5 17.5332 3.5 17.5541C3.5 17.575 3.5 17.5959 3.5 17.6168C3.5 17.6377 3.5 17.6586 3.5 17.6795C3.5 17.7004 3.5 17.7213 3.5 17.7421C3.5 17.763 3.5 17.7839 3.5 17.8048C3.5 17.8256 3.5 17.8465 3.5 17.8674C3.5 17.8882 3.5 17.9091 3.5 17.93C3.5 17.9508 3.5 17.9717 3.5 17.9925C3.5 18.0133 3.5 18.0342 3.5 18.055C3.5 18.0759 3.5 18.0967 3.5 18.1175C3.5 18.1383 3.5 18.1591 3.5 18.18C3.5 18.2008 3.5 18.2216 3.5 18.2424C3.5 18.2632 3.5 18.284 3.5 18.3048C3.5 18.3256 3.5 18.3463 3.5 18.3671C3.5 18.3879 3.5 18.4087 3.5 18.4294C3.5 18.4502 3.5 18.471 3.5 18.4917C3.5 18.5125 3.5 18.5332 3.5 18.5539C3.5 18.5747 3.5 18.5954 3.5 18.6161C3.5 18.6369 3.5 18.6576 3.5 18.6783C3.5 18.699 3.5 18.7197 3.5 18.7404C3.5 18.7611 3.5 18.7818 3.5 18.8025C3.5 18.8232 3.5 18.8439 3.5 18.8646C3.5 18.8852 3.5 18.9059 3.5 18.9265C3.5 18.9472 3.5 18.9679 3.5 18.9885C3.5 19.0091 3.5 19.0298 3.5 19.0504C3.5 19.071 3.5 19.0917 3.5 19.1123C3.5 19.1329 3.5 19.1535 3.5 19.1741C3.5 19.1947 3.5 19.2153 3.5 19.2359C3.5 19.2564 3.5 19.277 3.5 19.2976C3.5 19.3181 3.5 19.3387 3.5 19.3592C3.5 19.3798 3.5 19.4003 3.5 19.4209C3.5 19.4414 3.5 19.4619 3.5 19.4824C3.5 19.5029 3.5 19.5235 3.5 19.5439C3.5 19.5644 3.5 19.5849 3.5 19.6054C3.5 19.6259 3.5 19.6464 3.5 19.6668C3.5 19.6873 3.5 19.7077 3.5 19.7282C3.5 19.7486 3.5 19.7691 3.5 19.7895C3.5 19.8099 3.5 19.8303 3.5 19.8507C3.5 19.8711 3.5 19.8915 3.5 19.9119C3.5 19.9323 3.5 19.9527 3.5 19.973C3.5 19.9934 3.5 20.0138 3.5 20.0341C3.5 20.0545 3.5 20.0748 3.5 20.0951C3.5 20.1155 3.5 20.1358 3.5 20.1561C3.5 20.1764 3.5 20.1967 3.5 20.217C3.5 20.2373 3.5 20.2575 3.5 20.2778C3.5 20.2981 3.5 20.3183 3.5 20.3386C3.5 20.3588 3.5 20.379 3.5 20.3993C3.5 20.4195 3.5 20.4397 3.5 20.4599C3.5 20.4801 3.5 20.5003 3.5 20.5205C3.5 20.5406 3.5 20.5608 3.5 20.581C3.5 20.6011 3.5 20.6213 3.5 20.6414C3.5 20.6615 3.5 20.6816 3.5 20.7018C3.5 20.7219 3.5 20.742 3.5 20.762C3.5 20.7821 3.5 20.8022 3.5 20.8223C3.5 20.8423 3.5 20.8624 3.5 20.8824C3.5 20.9025 3.5 20.9225 3.5 20.9425C3.5 20.9625 3.5 20.9825 3.5 21.0025C3.5 21.0225 3.5 21.0425 3.5 21.0624C3.5 21.0824 3.5 21.1024 3.5 21.1223C3.5 21.1422 3.5 21.1622 3.5 21.1821C3.5 21.202 3.5 21.2219 3.5 21.2418C3.5 21.2617 3.5 21.2816 3.5 21.3014C3.5 21.3213 3.5 21.3411 3.5 21.361C3.5 21.3808 3.5 21.4006 3.5 21.4204C3.5 21.4402 3.5 21.46 3.5 21.4798C3.5 21.4996 3.5 21.5194 3.5 21.5391C3.5 21.5589 3.5 21.5786 3.5 21.5984C3.5 21.6181 3.5 21.6378 3.5 21.6575C3.5 21.6772 3.5 21.6969 3.5 21.7166C3.5 21.7362 3.5 21.7559 3.5 21.7755C3.5 21.7952 3.5 21.8148 3.5 21.8344C3.5 21.854 3.5 21.8736 3.5 21.8932C3.5 21.9128 3.5 21.9324 3.5 21.9519C3.5 21.9715 3.5 21.991 3.5 22.0106C3.5 22.0301 3.5 22.0496 3.5 22.0691C3.5 22.0886 3.5 22.1081 3.5 22.1276C3.5 22.147 3.5 22.1665 3.5 22.1859C3.5 22.2054 3.5 22.2248 3.5 22.2442C3.5 22.2636 3.5 22.283 3.5 22.3024C3.5 22.3217 3.5 22.3411 3.5 22.3604C3.5 22.3798 3.5 22.3991 3.5 22.4184C3.5 22.4377 3.5 22.457 3.5 22.4763C3.5 22.4956 3.5 22.5148 3.5 22.5341C3.5 22.5533 3.5 22.5726 3.5 22.5918C3.5 22.611 3.5 22.6302 3.5 22.6494C3.5 22.6686 3.5 22.6877 3.5 22.7069C3.5 22.726 3.5 22.7452 3.5 22.7643C3.5 22.7834 3.5 22.8025 3.5 22.8216C3.5 22.8407 3.5 22.8597 3.5 22.8788C3.5 22.8978 3.5 22.9169 3.5 22.9359C3.5 22.9549 3.5 22.9739 3.5 22.9929C3.5 23.0118 3.5 23.0308 3.5 23.0498C3.5 23.0687 3.5 23.0876 3.5 23.1065C3.5 23.1254 3.5 23.1443 3.5 23.1632C3.5 23.1821 3.5 23.2009 3.5 23.2198C3.5 23.2386 3.5 23.2574 3.5 23.2762C3.5 23.295 3.5 23.3138 3.5 23.3326C3.5 23.3514 3.5 23.3701 3.5 23.3888C3.5 23.4076 3.5 23.4263 3.5 23.445C3.5 23.4637 3.5 23.4823 3.5 23.501C3.5 23.5196 3.5 23.5383 3.5 23.5569C3.5 23.5755 3.5 23.5941 3.5 23.6127C3.5 23.6313 3.5 23.6498 3.5 23.6684C3.5 23.6869 3.5 23.7054 3.5 23.7239C3.5 23.7424 3.5 23.7609 3.5 23.7794C3.5 23.7978 3.5 23.8163 3.5 23.8347C3.5 23.8531 3.5 23.8715 3.5 23.8899C3.5 23.9083 3.5 23.9267 3.5 23.945C3.5 23.9634 3.5 23.9817 3.5 24L4.5 24Z" fill="#080E2F"/>
</svg>
