<svg width="7" height="14" viewBox="0 0 7 14" fill="none" xmlns="http://www.w3.org/2000/svg">
<path d="M0.223507 7.38045H1.7425V13.6339C1.7425 13.7574 1.84254 13.8574 1.96601 13.8574H4.54152C4.66498 13.8574 4.76502 13.7574 4.76502 13.6339V7.40991H6.51124C6.62478 7.40991 6.7203 7.32471 6.73327 7.21193L6.99848 4.90972C7.00577 4.84638 6.9857 4.78295 6.94332 4.73543C6.9009 4.68787 6.84019 4.66065 6.77649 4.66065H4.76511V3.21751C4.76511 2.78248 4.99935 2.56188 5.46138 2.56188C5.52723 2.56188 6.77649 2.56188 6.77649 2.56188C6.89996 2.56188 7 2.46179 7 2.33837V0.22516C7 0.101695 6.89996 0.00165395 6.77649 0.00165395H4.96408C4.95129 0.00102813 4.92291 0 4.88107 0C4.5666 0 3.47351 0.0617324 2.61006 0.856075C1.65337 1.73633 1.78635 2.7903 1.81814 2.97304V4.6606H0.223507C0.100042 4.6606 0 4.76064 0 4.88411V7.1569C0 7.28037 0.100042 7.38045 0.223507 7.38045Z" fill="white"/>
</svg>
