<svg width="4" height="17" viewBox="0 0 4 17" fill="none" xmlns="http://www.w3.org/2000/svg">
<path d="M3.07994 11.2626L3.37461 0.133301H0.63194L0.926607 11.2626H3.07994ZM0.405273 14.5946C0.405273 15.048 0.541273 15.4333 0.83594 15.728C1.13061 16.0453 1.51594 16.1813 1.99194 16.1813C2.46794 16.1813 2.85327 16.0453 3.14794 15.728C3.44261 15.4333 3.60127 15.048 3.60127 14.5946C3.60127 14.1413 3.44261 13.756 3.14794 13.4613C2.85327 13.1893 2.46794 13.0306 1.99194 13.0306C1.51594 13.0306 1.13061 13.1893 0.83594 13.4613C0.541273 13.756 0.405273 14.1413 0.405273 14.5946Z" fill="white"/>
</svg>
