<svg width="14" height="11" viewBox="0 0 14 11" fill="none" xmlns="http://www.w3.org/2000/svg">
<path d="M14 1.30225C13.4849 1.52333 12.9313 1.67222 12.3503 1.73934C12.9436 1.39587 13.3992 0.85162 13.6132 0.203035C13.0585 0.521124 12.4437 0.752358 11.7892 0.877C11.2659 0.337264 10.5187 0 9.69267 0C7.83825 0 6.47558 1.67279 6.89442 3.4093C4.508 3.29368 2.39167 2.18827 0.97475 0.508152C0.22225 1.75626 0.5845 3.389 1.86317 4.2158C1.393 4.20114 0.949667 4.0765 0.562917 3.86839C0.531417 5.15484 1.48517 6.35839 2.8665 6.62628C2.46225 6.73231 2.0195 6.75713 1.56917 6.67366C1.93433 7.77681 2.99483 8.57937 4.2525 8.60193C3.045 9.51728 1.52367 9.92617 0 9.75246C1.27108 10.5404 2.78133 11 4.403 11C9.73583 11 12.7487 6.64546 12.5667 2.73985C13.1279 2.34788 13.615 1.8589 14 1.30225Z" fill="white"/>
</svg>
