<svg width="166" height="116" viewBox="0 0 166 116" fill="none" xmlns="http://www.w3.org/2000/svg">
<path d="M57.4344 75.6513C57.4344 76.9055 56.612 77.3977 55.9557 77.3977C55.0891 77.3977 54.6708 76.7857 54.6708 75.8753V70.6477H53.4469V76.3977C53.4469 77.6816 54.1631 78.3388 55.4781 78.3388C56.2683 78.3388 56.986 77.9655 57.3896 77.2789H57.4344V78.1893H58.7333C58.688 77.666 58.6584 77.1436 58.6584 76.6216V70.6477H57.4344V75.6513Z" fill="#231F20"/>
<path d="M66.1855 78.1893V72.9628C66.1855 71.4691 65.7817 70.4993 64.1693 70.4993C63.1979 70.4993 62.6303 70.7675 62.1531 71.6191H62.0943V70.6477H60.7943C60.8391 71.1712 60.8677 71.692 60.8677 72.2164V78.1893H62.0943V73.7232C62.0943 72.6931 62.288 71.4993 63.6317 71.4993C64.6765 71.4993 64.9604 72.1565 64.9604 72.9628V78.1893H66.1855Z" fill="#231F20"/>
<path d="M72.2031 74.1123C72.2031 75.6347 72.2031 77.3388 70.8297 77.3388C69.2917 77.3388 69.2917 75.6945 69.2917 74.5603C69.2917 72.5445 69.4719 71.4993 70.786 71.4993C72.1432 71.4993 72.2031 73.1123 72.2031 74.1123V74.1123ZM72.2031 71.4081H72.1593C71.7401 70.8128 71.2183 70.4993 70.5021 70.4993C68.0672 70.4993 68.0079 72.6633 68.0079 74.5461C68.0079 77.8612 69.2317 78.3388 70.4421 78.3388C71.2333 78.3388 71.7552 77.9951 72.1735 77.292H72.2031V78.1893H73.4276V67.4081H72.2031V71.4081Z" fill="#231F20"/>
<path d="M79.9531 78.1893V73.2607H83.7167V72.0655H79.9531V68.6008H83.9245V67.4081H78.5781V78.1893H79.9531Z" fill="#231F20"/>
<path d="M87.6855 77.3388C86.4156 77.3388 86.1016 76.4576 86.1016 74.0071C86.1016 71.9456 86.7427 71.4993 87.6855 71.4993C88.6255 71.4993 89.2683 71.9456 89.2683 74.0071C89.2683 76.4576 88.9547 77.3388 87.6855 77.3388ZM87.6855 78.3388C89.2833 78.3388 90.5516 77.8612 90.5516 74.5305C90.5516 72.3196 90.2984 70.4993 87.6855 70.4993C85.0719 70.4993 84.8177 72.3196 84.8177 74.5305C84.8177 77.8612 86.0864 78.3388 87.6855 78.3388" fill="#231F20"/>
<path d="M93.6891 70.6477H92.4651V78.1893H93.6891V73.7399C93.6891 72.7232 94.0328 71.692 95.3896 71.692C95.6136 71.692 95.8245 71.7388 96.0484 71.7685V70.4993C94.8531 70.4993 94.2281 70.6321 93.7197 71.7831H93.6891V70.6477" fill="#231F20"/>
<path d="M102.163 76.0384C102.163 73.7399 98.3973 73.7685 98.3973 72.4393C98.3973 71.7831 98.9079 71.4248 99.564 71.4248C100.34 71.4248 100.759 71.8431 100.744 72.6331H102.103C102.207 71.1409 101.059 70.4993 99.7151 70.4993C97.5927 70.4993 97.1136 71.7685 97.1136 72.5592C97.1136 74.8144 100.879 74.844 100.879 76.1879C100.879 76.9655 100.311 77.3388 99.5771 77.3388C98.3401 77.3388 98.3245 76.3221 98.3245 75.8899H96.9364C96.8896 77.6216 97.9079 78.3388 99.5355 78.3388C101.028 78.3388 102.163 77.6972 102.163 76.0384" fill="#231F20"/>
<path d="M108.923 73.0655C108.999 71.3779 108.116 70.4993 106.608 70.4993C103.996 70.4993 103.741 72.3196 103.741 74.5305C103.741 77.8612 105.012 78.3388 106.608 78.3388C107.447 78.3388 109.03 77.8013 108.983 75.68H107.699C107.744 77.0393 106.892 77.3388 106.608 77.3388C105.34 77.3388 105.028 76.4576 105.028 74.0071C105.028 71.9456 105.668 71.4993 106.608 71.4993C107.072 71.4993 107.684 71.8284 107.655 73.0655H108.923" fill="#231F20"/>
<path d="M116.269 78.1893V72.8431C116.269 71.1409 115.553 70.4993 114.269 70.4993C113.285 70.4993 112.717 70.7373 112.225 71.6191H112.166V67.4081H110.942V78.1893H112.166V73.7529C112.166 72.4847 112.479 71.4993 113.703 71.4993C114.749 71.4993 115.045 72.1565 115.045 73.0827V78.1893H116.269" fill="#231F20"/>
<path d="M122.455 75.6513C122.455 76.9055 121.635 77.3977 120.976 77.3977C120.108 77.3977 119.692 76.7857 119.692 75.8753V70.6477H118.468V76.3977C118.468 77.6816 119.184 78.3388 120.499 78.3388C121.291 78.3388 122.007 77.9655 122.411 77.2789H122.455V78.1893H123.755C123.707 77.666 123.679 77.1436 123.679 76.6216V70.6477H122.455V75.6513" fill="#231F20"/>
<path d="M131.205 78.1893V72.9628C131.205 71.4691 130.801 70.4993 129.189 70.4993C128.22 70.4993 127.652 70.7675 127.173 71.6191H127.113V70.6477H125.816C125.859 71.1712 125.889 71.692 125.889 72.2164V78.1893H127.113V73.7232C127.113 72.6931 127.309 71.4993 128.652 71.4993C129.697 71.4993 129.981 72.1565 129.981 72.9628V78.1893H131.205" fill="#231F20"/>
<path d="M137.255 74.3805C137.255 75.4273 137.299 77.1737 135.821 77.1737C134.911 77.1737 134.356 76.6071 134.356 74.1879C134.356 73.1868 134.403 71.5149 135.791 71.5149C137.327 71.5149 137.255 73.2607 137.255 74.3805ZM137.225 71.5732H137.195C136.851 70.8431 136.225 70.4993 135.433 70.4993C134.821 70.4993 133.075 70.7216 133.075 74.1879C133.075 76.4273 133.476 78.1893 135.523 78.1893C136.179 78.1893 136.867 77.8456 137.179 77.2493H137.225V78.8169C137.225 79.5931 136.761 80.1164 135.911 80.1164C135.239 80.1164 134.775 79.7284 134.761 79.0253H133.387C133.283 80.4144 134.419 81.0409 135.671 81.0409C137.327 81.0409 138.449 80.6384 138.449 78.9508V70.6477H137.225V71.5732" fill="#231F20"/>
<path d="M52.9093 54.6477V55.5732H54.0729V62.1893H55.2984V55.5732H56.8219V54.6477H55.2984V53.3639C55.2984 52.7519 55.5213 52.1983 56.8219 52.2868V51.4081C56.6421 51.3769 56.4917 51.3623 56.2375 51.3623C55.1479 51.3623 54.0729 51.6607 54.0729 53.1852V54.6477H52.9093Z" fill="#231F20"/>
<path d="M60.0432 51.8259H58.6396V53.3779H60.0432V51.8259ZM62.6719 51.8259H61.2672V53.3779H62.6719V51.8259ZM62.0292 59.6513C62.0292 60.9055 61.2079 61.3977 60.55 61.3977C59.6855 61.3977 59.2672 60.7841 59.2672 59.8753V54.6477H58.0416V60.3977C58.0416 61.6816 58.7593 62.3388 60.0729 62.3388C60.864 62.3388 61.5807 61.9655 61.9844 61.2789H62.0292V62.1893H63.3281C63.2844 61.666 63.2547 61.1436 63.2547 60.6216V54.6477H62.0292V59.6513" fill="#231F20"/>
<path d="M66.7333 54.6477H65.5093V62.1893H66.7333V57.7399C66.7333 56.7232 67.0771 55.692 68.4369 55.692C68.6609 55.692 68.8677 55.7388 69.0932 55.7685V54.4993C67.8979 54.4993 67.2703 54.6321 66.7631 55.7831H66.7333V54.6477Z" fill="#231F20"/>
<path d="M74.1907 57.1425H75.6541C77.0579 57.1425 78.1167 57.4393 78.1167 59.1581C78.1167 59.9483 77.5959 60.9951 76.1317 60.9951H74.1907V57.1425ZM74.1907 52.6008H76.1317C77.2817 52.6008 77.7891 53.3336 77.7891 54.2284C77.7891 55.2753 77.2672 55.9327 76.1921 55.9456H74.1907V52.6008ZM76.2817 62.1893C77.5052 62.1893 79.5203 61.9212 79.5203 59.1581C79.5203 57.68 78.8489 56.7529 77.312 56.5732V56.5003C78.7005 56.1868 79.1631 55.2893 79.1631 53.9445C79.1631 53.7373 79.1031 53.0956 78.7292 52.5107C78.3271 51.9144 77.8193 51.4081 76.3255 51.4081H72.8172V62.1893H76.2817" fill="#231F20"/>
<path d="M82.7104 54.6477H81.486V62.1893H82.7104V54.6477ZM81.4115 52.7207H82.786V51.4081H81.4115V52.7207Z" fill="#231F20"/>
<path d="M86.1735 51.4081H84.9495V62.1893H86.1735V51.4081Z" fill="#231F20"/>
<path d="M92.2803 58.1123C92.2803 59.6347 92.2803 61.3388 90.9057 61.3388C89.3667 61.3388 89.3667 59.6945 89.3667 58.5603C89.3667 56.5445 89.5469 55.4993 90.8609 55.4993C92.2197 55.4993 92.2803 57.1123 92.2803 58.1123V58.1123ZM92.2803 55.4081H92.2333C91.8167 54.8128 91.2943 54.4993 90.5771 54.4993C88.1432 54.4993 88.0828 56.6633 88.0828 58.5461C88.0828 61.8612 89.3079 62.3388 90.5172 62.3388C91.3093 62.3388 91.8307 61.9951 92.2516 61.292H92.2803V62.1893H93.5041V51.4081H92.2803V55.4081" fill="#231F20"/>
<path d="M99.7932 59.6513C99.7932 60.9055 98.9697 61.3977 98.314 61.3977C97.4469 61.3977 97.0303 60.7841 97.0303 59.8753V54.6477H95.8031V60.3977C95.8031 61.6816 96.5197 62.3388 97.8349 62.3388C98.6265 62.3388 99.3453 61.9655 99.7464 61.2789H99.7932V62.1893H101.09C101.046 61.666 101.015 61.1436 101.015 60.6216V54.6477H99.7932V59.6513Z" fill="#231F20"/>
<path d="M108.543 62.1893V56.9628C108.543 55.4691 108.14 54.4993 106.528 54.4993C105.556 54.4993 104.989 54.7675 104.512 55.6191H104.449V54.6477H103.153C103.197 55.1712 103.228 55.692 103.228 56.2164V62.1893H104.449V57.7232C104.449 56.6931 104.645 55.4993 105.989 55.4993C107.035 55.4993 107.319 56.1565 107.319 56.9628V62.1893H108.543Z" fill="#231F20"/>
<path d="M114.593 58.3805C114.593 59.4273 114.636 61.1737 113.157 61.1737C112.246 61.1737 111.694 60.6071 111.694 58.1879C111.694 57.1868 111.739 55.5149 113.129 55.5149C114.665 55.5149 114.593 57.2607 114.593 58.3805V58.3805ZM114.561 55.5732H114.533C114.189 54.8431 113.561 54.4993 112.769 54.4993C112.158 54.4993 110.41 54.7216 110.41 58.1879C110.41 60.4273 110.814 62.1893 112.859 62.1893C113.515 62.1893 114.203 61.8456 114.517 61.2493H114.561V62.8155C114.561 63.5931 114.097 64.1164 113.249 64.1164C112.575 64.1164 112.111 63.7269 112.098 63.0253H110.723C110.619 64.4133 111.754 65.0409 113.009 65.0409C114.665 65.0409 115.785 64.6384 115.785 62.9508V54.6477H114.561V55.5732" fill="#231F20"/>
<path d="M54.8666 41.1425H56.3306C57.7344 41.1425 58.7942 41.4393 58.7942 43.1581C58.7942 43.9483 58.2713 44.9951 56.8093 44.9951H54.8666V41.1425ZM54.8666 36.6008H56.8093C57.9578 36.6008 58.4666 37.3336 58.4666 38.2284C58.4666 39.2753 57.9426 39.9327 56.8666 39.9456H54.8666V36.6008ZM56.9562 46.1893C58.1828 46.1893 60.1978 45.9212 60.1978 43.1581C60.1978 41.68 59.5265 40.7529 57.9874 40.5732V40.5003C59.377 40.1868 59.8406 39.2893 59.8406 37.9445C59.8406 37.7373 59.7806 37.0956 59.4068 36.5107C59.0046 35.9144 58.4969 35.4081 57.003 35.4081H53.4926V46.1893H56.9562Z" fill="#231F20"/>
<path d="M65.9719 43.6513C65.9719 44.9055 65.1489 45.3977 64.4917 45.3977C63.6271 45.3977 63.2079 44.7841 63.2079 43.8753V38.6477H61.9844V44.3977C61.9844 45.6816 62.7005 46.3388 64.0145 46.3388C64.8052 46.3388 65.5229 45.9655 65.9251 45.2789H65.9719V46.1893H67.2688C67.2255 45.666 67.1953 45.1436 67.1953 44.6216V38.6477H65.9719V43.6513" fill="#231F20"/>
<path d="M74.7234 46.1893V40.9628C74.7234 39.4691 74.3193 38.4993 72.7057 38.4993C71.736 38.4993 71.1682 38.7675 70.6906 39.6191H70.6302V38.6477H69.3312C69.377 39.1712 69.4068 39.692 69.4068 40.2164V46.1893H70.6302V41.7232C70.6302 40.6931 70.8245 39.4993 72.1693 39.4993C73.214 39.4993 73.4978 40.1565 73.4978 40.9628V46.1893H74.7234" fill="#231F20"/>
<path d="M80.7401 42.1123C80.7401 43.6347 80.7401 45.3388 79.3667 45.3388C77.8297 45.3388 77.8297 43.6945 77.8297 42.5603C77.8297 40.5445 78.0079 39.4993 79.3229 39.4993C80.6803 39.4993 80.7401 41.1123 80.7401 42.1123V42.1123ZM80.7401 39.4081H80.6969C80.2792 38.8128 79.7552 38.4993 79.0391 38.4993C76.6041 38.4993 76.5443 40.6633 76.5443 42.5461C76.5443 45.8612 77.7688 46.3388 78.9792 46.3388C79.7703 46.3388 80.2932 45.9951 80.7104 45.292H80.7401V46.1893H81.9656V35.4081H80.7401V39.4081Z" fill="#231F20"/>
<path d="M85.1317 41.8883C85.1464 39.7988 85.7891 39.4248 86.5656 39.4248C87.4604 39.4248 88.0745 39.692 88.0745 41.8883H85.1317ZM89.3729 42.8144V42.1721C89.3729 39.6789 88.8339 38.4993 86.6855 38.4993C84.0719 38.4993 83.8177 40.3196 83.8177 42.5305C83.8177 45.8612 85.0864 46.3388 86.6855 46.3388C88.2683 46.3388 89.2984 45.5773 89.3131 43.9055H87.9693C87.9245 44.6644 87.4901 45.3388 86.6557 45.3388C85.6995 45.3388 85.1317 44.9196 85.1317 42.8144H89.3729Z" fill="#231F20"/>
<path d="M96.124 44.0384C96.124 41.7399 92.3609 41.7685 92.3609 40.4393C92.3609 39.7831 92.8688 39.4248 93.525 39.4248C94.301 39.4248 94.7197 39.8431 94.7046 40.6331H96.064C96.1682 39.1409 95.0172 38.4993 93.6735 38.4993C91.5531 38.4993 91.0754 39.7685 91.0754 40.5592C91.0754 42.8144 94.8401 42.844 94.8401 44.1879C94.8401 44.9655 94.2724 45.3388 93.5406 45.3388C92.301 45.3388 92.2854 44.3221 92.2854 43.8899H90.8964C90.8516 45.6216 91.8661 46.3388 93.4964 46.3388C94.9885 46.3388 96.124 45.6956 96.124 44.0384" fill="#231F20"/>
<path d="M102.96 46.1893V41.1123C102.96 40.8284 103.017 40.0811 103.379 39.7831C103.705 39.5149 103.84 39.4993 104.303 39.4993C105.291 39.4993 105.499 40.2008 105.499 40.9628V46.1893H106.723V40.4549C106.723 38.6773 105.452 38.4993 104.663 38.4993C103.975 38.4993 103.288 38.6617 102.871 39.4691C102.585 38.7831 101.793 38.4993 101.108 38.4993C100.228 38.4993 99.5849 38.7831 99.2281 39.5888H99.1969V38.6477H97.8973C97.9416 39.1712 97.9729 39.692 97.9729 40.2164V46.1893H99.1969V41.1123C99.1969 40.8284 99.2568 40.3795 99.4807 40.0055C99.6604 39.7216 100.168 39.4993 100.541 39.4993C101.528 39.4993 101.733 40.2008 101.733 40.9628V46.1893H102.96" fill="#231F20"/>
<path d="M110.111 38.6477H108.886V46.1893H110.111V38.6477ZM108.811 36.7207H110.186V35.4081H108.811V36.7207Z" fill="#231F20"/>
<path d="M117.651 46.1893V40.9628C117.651 39.4691 117.249 38.4993 115.635 38.4993C114.663 38.4993 114.097 38.7675 113.619 39.6191H113.559V38.6477H112.259C112.303 39.1712 112.332 39.692 112.332 40.2164V46.1893H113.559V41.7232C113.559 40.6931 113.755 39.4993 115.097 39.4993C116.143 39.4993 116.427 40.1565 116.427 40.9628V46.1893H117.651Z" fill="#231F20"/>
<path d="M121.04 38.6477H119.816V46.1893H121.04V38.6477ZM119.741 36.7207H121.113V35.4081H119.741V36.7207Z" fill="#231F20"/>
<path d="M127.999 44.0384C127.999 41.7399 124.233 41.7685 124.233 40.4393C124.233 39.7831 124.741 39.4248 125.397 39.4248C126.176 39.4248 126.595 39.8431 126.577 40.6331H127.939C128.043 39.1409 126.892 38.4993 125.548 38.4993C123.428 38.4993 122.949 39.7685 122.949 40.5592C122.949 42.8144 126.715 42.844 126.715 44.1879C126.715 44.9655 126.145 45.3388 125.416 45.3388C124.173 45.3388 124.16 44.3221 124.16 43.8899H122.769C122.728 45.6216 123.741 46.3388 125.372 46.3388C126.861 46.3388 127.999 45.6956 127.999 44.0384" fill="#231F20"/>
<path d="M128.816 38.6477V39.5732H130.053V44.9352C130.053 45.8013 130.577 46.2789 131.741 46.2789C132.145 46.2789 132.548 46.1893 132.952 46.1581V45.2191C132.684 45.2493 132.488 45.2789 132.4 45.2789C131.28 45.2789 131.28 44.6644 131.28 44.1879V39.5732H132.921V38.6477H131.28V36.6477L130.053 37.1983V38.6477H128.816" fill="#231F20"/>
<path d="M135.261 41.8883C135.277 39.7988 135.919 39.4248 136.697 39.4248C137.593 39.4248 138.205 39.692 138.205 41.8883H135.261ZM139.504 42.8144V42.1721C139.504 39.6789 138.968 38.4993 136.816 38.4993C134.203 38.4993 133.949 40.3196 133.949 42.5305C133.949 45.8612 135.217 46.3388 136.816 46.3388C138.397 46.3388 139.428 45.5773 139.444 43.9055H138.1C138.053 44.6644 137.624 45.3388 136.788 45.3388C135.829 45.3388 135.261 44.9196 135.261 42.8144H139.504Z" fill="#231F20"/>
<path d="M142.536 38.6477H141.312V46.1893H142.536V41.7399C142.536 40.7232 142.879 39.692 144.239 39.692C144.463 39.692 144.671 39.7388 144.895 39.7685V38.4993C143.7 38.4993 143.075 38.6321 142.567 39.7831H142.536V38.6477Z" fill="#231F20"/>
<path d="M147.427 38.6477H146.2V46.1893H147.427V38.6477ZM146.127 36.7207H147.501V35.4081H146.127V36.7207Z" fill="#231F20"/>
<path d="M153.575 43.6513C153.575 44.9055 152.757 45.3977 152.097 45.3977C151.231 45.3977 150.815 44.7841 150.815 43.8753V38.6477H149.591V44.3977C149.591 45.6816 150.307 46.3388 151.621 46.3388C152.413 46.3388 153.129 45.9655 153.533 45.2789H153.575V46.1893H154.876C154.829 45.666 154.801 45.1436 154.801 44.6216V38.6477H153.575V43.6513Z" fill="#231F20"/>
<path d="M161.984 46.1893V41.1123C161.984 40.8284 162.043 40.0811 162.403 39.7831C162.731 39.5149 162.864 39.4993 163.327 39.4993C164.315 39.4993 164.523 40.2008 164.523 40.9628V46.1893H165.749V40.4549C165.749 38.6773 164.479 38.4993 163.687 38.4993C162.999 38.4993 162.315 38.6617 161.895 39.4691C161.611 38.7831 160.819 38.4993 160.132 38.4993C159.252 38.4993 158.608 38.7831 158.252 39.5888H158.22V38.6477H156.921C156.968 39.1712 156.996 39.692 156.996 40.2164V46.1893H158.22V41.1123C158.22 40.8284 158.28 40.3795 158.504 40.0055C158.684 39.7216 159.192 39.4993 159.567 39.4993C160.548 39.4993 160.76 40.2008 160.76 40.9628V46.1893H161.984" fill="#231F20"/>
<path d="M39.3203 88.8571H44.0443V115.525H39.3203V88.8571Z" fill="#F2CF04"/>
<path d="M39.3203 62.0967H44.0443V88.8571H39.3203V62.0967Z" fill="#ED1C24"/>
<path d="M39.3203 35.5237H44.0443V62.1893H39.3203V35.5237" fill="#231F20"/>
<path d="M24.5839 40.0331C24.5839 38.5133 23.4792 37.3117 23.0907 36.9717L22.8104 37.0357C23.224 37.5409 23.9531 38.3857 23.9531 39.5055C23.9531 41.7087 21.6245 43.6243 18.9667 43.6592C18.9869 43.8857 18.986 44.0863 18.986 44.2571C18.986 44.5721 18.9656 44.8805 18.9276 45.18C21.9443 45.1253 24.5839 42.6737 24.5839 40.0331V40.0331ZM20.4255 58.2764C19.138 58.2764 18.8593 58.1409 18.5197 58.1409C18.3016 58.1409 18.0943 58.1617 18.0943 58.4707C18.0943 58.6852 18.3355 58.9977 18.5527 59.1617C18.8557 58.8612 19.2713 58.7961 19.9427 58.7961C20.2568 58.7961 20.6844 58.8571 20.8729 58.8821C20.8469 59.068 20.8093 59.3076 20.8093 59.6451C20.8093 59.8221 20.8156 60.0289 20.8156 60.2477C20.8156 61.0071 20.7047 61.4107 20.4396 61.7155C20.4969 61.7503 20.6489 61.7816 20.7401 61.7816C21.2333 61.7816 21.3593 61.5305 21.3593 60.2503C21.3593 59.8639 21.3907 59.5055 21.3907 59.4133C22.0797 59.9393 22.7817 60.8769 22.7817 61.5549C23.0068 61.4393 23.2713 61.0993 23.2713 60.844C23.2713 60.3821 22.4995 59.6945 21.6803 58.8649C21.7943 58.8379 22.0984 58.7503 22.3484 58.7503C22.9917 58.7503 23.512 58.8571 23.8145 59.2139C23.9344 59.0836 24.0333 58.692 24.0333 58.4707C24.0333 58.0852 23.812 58.0983 23.6516 58.0983C22.9667 58.0983 22.1203 58.2051 21.5145 58.3051C21.2943 58.0107 19.8907 56.1123 19.5265 55.0993C19.4219 55.0628 19.3407 55.0331 19.1683 55.0331C18.8307 55.0331 18.7427 55.2685 18.6557 55.5915C19.4292 56.5305 20.1735 57.5513 20.4255 58.2764V58.2764ZM12.7401 55.5915C12.6531 55.2685 12.5672 55.0331 12.2292 55.0331C12.0552 55.0331 11.974 55.0628 11.8719 55.0993C11.5052 56.1123 10.1031 58.0107 9.88119 58.3051C9.27813 58.2051 8.42919 58.0983 7.74533 58.0983C7.58386 58.0983 7.3636 58.0852 7.3636 58.4707C7.3636 58.692 7.46146 59.0836 7.5828 59.2139C7.8844 58.8571 8.40573 58.7503 9.04786 58.7503C9.29946 58.7503 9.6016 58.8379 9.7156 58.8649C8.8964 59.6945 8.12453 60.3821 8.12453 60.844C8.12453 61.0993 8.39066 61.4393 8.61506 61.5549C8.61506 60.8769 9.31773 59.9393 10.0052 59.4133C10.0052 59.5055 10.038 59.8639 10.038 60.2503C10.038 61.5305 10.164 61.7816 10.6568 61.7816C10.7469 61.7816 10.8989 61.7503 10.9579 61.7155C10.6927 61.4107 10.5807 61.0071 10.5807 60.2477C10.5807 60.0289 10.5891 59.8221 10.5891 59.6451C10.5891 59.3076 10.5495 59.068 10.524 58.8821C10.7115 58.8571 11.1407 58.7961 11.4547 58.7961C12.1245 58.7961 12.5407 58.8612 12.8443 59.1617C13.062 58.9977 13.3027 58.6852 13.3027 58.4707C13.3027 58.1617 13.0959 58.1409 12.8771 58.1409C12.5364 58.1409 12.2588 58.2764 10.9708 58.2764C11.224 57.5513 11.9667 56.5305 12.7401 55.5915ZM7.44426 39.5055C7.44426 38.3857 8.17346 37.5409 8.58546 37.0357L8.30786 36.9717C7.91666 37.3117 6.81306 38.5133 6.81306 40.0331C6.81306 42.692 9.49013 45.1607 12.5344 45.1816C12.5021 44.8925 12.4833 44.5863 12.4833 44.2571C12.4833 44.0524 12.4917 43.8508 12.5088 43.6617C9.81933 43.6617 7.44426 41.7295 7.44426 39.5055V39.5055ZM15.6229 37.4576C15.762 37.1384 15.9479 36.7597 15.9479 36.3431C15.9479 35.1893 14.9917 34.6399 13.7115 34.6399C13.0541 34.6399 12.7219 34.8519 12.7219 35.0655C12.7219 35.2789 12.9396 35.7477 13.0229 35.8925C13.2588 35.7868 13.6869 35.6617 13.9344 35.6617C14.8131 35.6617 15.4693 36.6477 15.6229 37.4576ZM16.2521 35.9821C17.0005 36.1279 17.5104 35.1721 16.7995 35.0019C16.8979 35.3169 16.4193 35.5393 16.4193 35.5393C16.4193 35.5393 16.2369 35.1175 16.4735 34.8769C16.038 34.6633 15.9276 34.9221 15.9193 35.1904C16.0907 35.4196 16.2021 35.6868 16.2521 35.9821ZM18.6745 42.5331C18.7943 42.5409 18.9083 42.5472 19.0281 42.5472C21.1344 42.5472 23.224 41.1852 23.224 39.4393C23.224 38.5081 22.8052 37.8571 22.288 37.1357C21.9844 37.1868 21.7079 37.2155 21.4901 37.2155C20.536 37.2155 20.0183 36.7035 19.9807 36.2008C19.9807 35.7493 20.3484 35.4065 20.9193 35.4065C21.8052 35.4065 23.4208 36.2363 25.0479 36.2363C24.888 36.3571 24.6219 36.4847 24.3011 36.6045C25.2547 37.4639 25.8921 38.6149 26.1355 39.8456L28.6297 43.8379C29.0479 44.5045 29.9344 45.8144 31.2683 46.8379C29.6557 46.8379 28.5839 46.8753 27.2208 44.718L25.9427 42.6721C25.8484 42.9368 25.7307 43.1945 25.5943 43.4472L28.1364 47.5175C28.5604 48.1904 29.4355 49.4915 30.7765 50.5185C29.1631 50.5185 28.0943 50.5576 26.7292 48.3988L24.5407 44.8951C24.3771 45.068 24.2047 45.2388 24.0213 45.4029L27.1109 50.3456C27.536 51.0227 28.4083 52.3155 29.7505 53.3456C28.1364 53.3456 27.0672 53.3831 25.7021 51.2243L22.6921 46.4065C22.4927 46.5331 22.2907 46.6529 22.0823 46.7685L25.7552 52.6488C26.1792 53.3232 27.0511 54.6191 28.3948 55.6488C26.7817 55.6488 25.7104 55.6868 24.3484 53.5279L20.5645 47.4717C20.3407 47.5592 20.112 47.6399 19.8812 47.7139L24.1584 54.5592C24.5745 55.2216 25.4683 56.5368 26.7959 57.5576C25.1828 57.5576 24.112 57.5956 22.7495 55.4368L18.1921 48.1425L18.0527 48.1669C17.9292 48.5617 17.8432 48.93 17.8432 49.2972C17.8432 51.5888 19.3469 53.6123 21.1531 55.1748C21.0364 55.2243 20.8355 55.244 20.6489 55.244C20.2781 55.244 20.0364 55.2216 19.8667 55.1931C20.2864 56.1451 21.1844 57.3717 21.638 58.0071C22.2292 57.9013 23.0891 57.8169 23.6516 57.8169C24.2401 57.8169 24.3052 58.1617 24.3052 58.4707C24.3052 59.0045 24.0552 59.4341 23.7656 59.6712C23.6568 59.3951 23.4369 59.0305 22.3484 59.0305L22.2385 59.0341C22.5579 59.3899 23.5527 60.1945 23.5527 60.844C23.5527 61.2727 23.0823 61.916 22.4604 61.916C22.4995 61.7779 22.4927 61.6503 22.4927 61.5549C22.4927 61.0305 22.0281 60.416 21.6355 59.9873C21.6453 60.1149 21.6407 60.1008 21.6407 60.2503C21.6407 61.4915 21.5292 62.0617 20.7401 62.0617C20.3541 62.0617 20.0864 61.8493 19.9953 61.7868C20.5068 61.3144 20.5344 60.9431 20.5344 60.2477L20.5292 59.6451C20.5281 59.4863 20.5307 59.2764 20.5552 59.1227C20.2729 59.0836 20.1609 59.0852 19.9427 59.0852C19.9427 59.0852 18.8219 58.9967 18.5527 59.5784C18.2495 59.3013 17.8093 58.9081 17.8093 58.4707C17.8093 58.1841 17.9443 57.8597 18.5197 57.8597C18.7385 57.8597 19.4255 57.9951 20.0005 57.9951C19.8469 57.6513 19.1584 56.6461 18.5645 55.9144C18.4735 56.1972 18.3323 56.5055 18.0197 56.7545C17.9765 56.2841 17.7021 54.8024 16.9683 53.9368C16.8828 54.5212 16.7672 55.1227 16.7672 56.3899C16.7672 59.4743 17.5088 61.7529 19.0839 62.1893C18.8797 62.5472 18.4469 62.8675 17.9969 62.8675C17.4208 62.8675 17.1068 62.2155 16.7864 61.5993C16.6203 62.0549 16.1609 63.1644 15.6979 63.1644C15.2369 63.1644 14.7765 62.0549 14.6109 61.5993C14.2907 62.2155 13.9765 62.8675 13.3989 62.8675C12.9505 62.8675 12.5172 62.5472 12.3131 62.1893C13.8864 61.7529 14.6297 59.4743 14.6297 56.3899C14.6297 55.1227 14.5145 54.5212 14.4276 53.9368C13.6953 54.8024 13.4193 56.2841 13.3771 56.7545C13.0645 56.5055 12.9235 56.1972 12.8328 55.9144C12.2385 56.6461 11.5511 57.6513 11.3953 57.9951C11.9719 57.9951 12.6584 57.8597 12.8771 57.8597C13.4531 57.8597 13.5891 58.1841 13.5891 58.4707C13.5891 58.9081 13.1464 59.3013 12.8443 59.5784C12.5745 58.9967 11.4547 59.0852 11.4547 59.0852C11.2369 59.0852 11.1245 59.0836 10.8416 59.1227C10.8651 59.2764 10.8703 59.4863 10.8667 59.6451L10.8636 60.2477C10.8636 60.9431 10.8896 61.3144 11.4016 61.7868C11.3104 61.8493 11.0432 62.0617 10.6568 62.0617C9.86773 62.0617 9.7552 61.4915 9.7552 60.2503C9.7552 60.1008 9.75053 60.1149 9.76199 59.9873C9.36773 60.416 8.90413 61.0305 8.90413 61.5549C8.90413 61.6503 8.89786 61.7779 8.93546 61.916C8.3156 61.916 7.84426 61.2727 7.84426 60.844C7.84426 60.1945 8.84066 59.3899 9.1584 59.0341L9.04786 59.0305C7.96039 59.0305 7.73906 59.3951 7.63119 59.6712C7.34066 59.4341 7.09066 59.0045 7.09066 58.4707C7.09066 58.1617 7.1568 57.8169 7.74533 57.8169C8.30933 57.8169 9.16826 57.9013 9.75879 58.0071C10.2115 57.3717 11.1093 56.1451 11.5292 55.1931C11.3609 55.2216 11.1203 55.244 10.7479 55.244C10.562 55.244 10.3593 55.2243 10.2453 55.1748C12.0495 53.6123 13.5527 51.5888 13.5527 49.2972C13.5527 48.93 13.4683 48.5617 13.3432 48.1669L13.2057 48.1425L8.64786 55.4368C7.28439 57.5956 6.21399 57.5576 4.60159 57.5576C5.92919 56.5368 6.82186 55.2216 7.23853 54.5592L11.5156 47.7139C11.2844 47.6399 11.0579 47.5592 10.8328 47.4717L7.04946 53.5279C5.68546 55.6868 4.61399 55.6488 3.00306 55.6488C4.34586 54.6191 5.21666 53.3232 5.64066 52.6488L9.3156 46.7685C9.10573 46.6529 8.90306 46.5331 8.70466 46.4065L5.69426 51.2243C4.32973 53.3831 3.2604 53.3456 1.6464 53.3456C2.98906 52.3155 3.862 51.0227 4.286 50.3456L7.37453 45.4029C7.19266 45.2388 7.01973 45.068 6.85679 44.8951L4.66826 48.3988C3.30266 50.5576 2.23333 50.5185 0.620262 50.5185C1.96039 49.4915 2.8364 48.1904 3.2604 47.5175L5.80159 43.4472C5.66666 43.1945 5.54946 42.9368 5.45466 42.6721L4.17546 44.718C2.812 46.8753 1.7416 46.8379 0.12973 46.8379C1.464 45.8144 2.34839 44.5045 2.76826 43.8379L5.262 39.8456C5.50466 38.6149 6.14213 37.4639 7.09586 36.6045C6.77653 36.4847 6.5088 36.3571 6.3484 36.2363C7.97653 36.2363 9.59066 35.4081 10.4765 35.4081C11.0495 35.4081 11.4156 35.7493 11.4156 36.2008C11.3797 36.7035 10.8609 37.2155 9.90573 37.2155C9.6896 37.2155 9.41306 37.1868 9.10826 37.1357C8.59173 37.8571 8.17346 38.5081 8.17346 39.4393C8.17346 41.1852 10.262 42.5472 12.3703 42.5472C12.4891 42.5472 12.6031 42.5409 12.7219 42.5331C13.1396 41.1191 14.0281 40.1904 14.7385 39.2831C13.8864 38.9732 12.938 38.1644 12.938 37.7988C13.0459 37.7363 14.6765 38.2493 14.8459 38.2945C14.8803 38.304 14.9156 38.3065 14.9547 38.2945C15.1531 38.2347 15.3193 37.9445 15.3193 37.9144C15.1448 37.8857 14.1219 37.7529 13.4219 37.4993C12.8907 37.3051 12.6219 36.9524 12.6219 36.818C12.7917 36.7909 13.4396 37.1305 14.3896 37.1305C14.7401 37.1305 14.8093 37.1164 15.1584 37.0732C14.9131 36.4899 14.4521 35.9967 13.9344 35.9967C13.7255 35.9967 13.2697 36.1269 12.888 36.3169C12.6229 35.9055 12.3896 35.3623 12.3896 35.0655C12.3896 34.7164 12.736 34.3065 13.7115 34.3065C13.9844 34.3065 14.2391 34.33 14.4765 34.3743C14.6667 34.4092 14.8271 34.4524 14.9995 34.5201C14.986 34.4967 14.9781 34.4445 14.9781 34.3961C14.9781 34.2607 15.1005 34.1191 15.5593 34.1191C16.362 34.1191 17.1855 34.3821 18.1953 34.3821C18.4573 34.3821 18.6344 34.3743 18.786 34.3103C18.7208 34.5107 18.4369 34.8076 18.1765 35.0472C18.3364 35.2675 18.7547 35.7961 18.7547 36.6513C18.7547 38.0253 17.8489 39.1581 17.8489 40.5472C17.8489 41.3727 18.4844 42.0993 18.6745 42.5331" fill="#231F20"/>
<path d="M56.7079 3.91999C56.7079 3.12665 56.3817 2.69731 55.5131 2.69731C55.2427 2.69731 54.2724 2.74399 54.2724 4.15332V6.43065C54.2724 7.90531 54.7011 8.27865 55.5131 8.27865C56.1297 8.27865 56.5396 8.11065 56.7177 7.97998V5.96398H55.476V5.21732H57.576V8.49331C57.0255 8.79198 56.3817 8.99731 55.5131 8.99731C54.0855 8.99731 53.3948 8.25998 53.3948 6.39331V4.18132C53.3948 2.83732 54.0855 1.97865 55.5131 1.97865C56.9693 1.97865 57.6604 2.51065 57.6041 3.91999H56.7079Z" fill="#231F20"/>
<path d="M59.1812 8.85733V2.11867H62.653V2.86533H60.0396V5.03066H62.4666V5.77733H60.0396V8.11066H62.7088V8.85733H59.1812" fill="#231F20"/>
<path d="M63.7828 8.85733V2.11867H67.124V2.86533H64.6412V5.03066H66.9937V5.77733H64.6412V8.85733H63.7828" fill="#231F20"/>
<path d="M67.9636 6.39331V4.18132C67.9636 2.83732 68.6541 1.97865 70.0828 1.97865C71.5104 1.97865 72.2011 2.83732 72.2011 4.18132V6.39331C72.2011 8.25998 71.5104 8.99731 70.0828 8.99731C68.6541 8.99731 67.9636 8.25998 67.9636 6.39331V6.39331ZM69.7088 1.32531H68.8323V0.354655H69.7088V1.32531ZM71.3235 6.43065V4.15332C71.3235 2.74399 70.3531 2.69731 70.0828 2.69731C69.812 2.69731 68.8412 2.74399 68.8412 4.15332V6.43065C68.8412 7.90531 69.2703 8.27865 70.0828 8.27865C70.8948 8.27865 71.3235 7.90531 71.3235 6.43065ZM71.3516 1.32531H70.4745V0.354655H71.3516V1.32531Z" fill="#231F20"/>
<path d="M74.5344 5.75866V8.85733H73.676V2.11867H76C77.1948 2.11867 77.6145 2.95866 77.6145 3.79866C77.6145 4.592 77.176 5.19865 76.3823 5.33865V5.35732C77.1568 5.47866 77.4369 5.73999 77.4839 7.09332C77.4927 7.38266 77.5864 8.43733 77.7167 8.85733H76.8208C76.5781 8.39066 76.6344 7.51333 76.5599 6.61733C76.4943 5.796 75.8312 5.75866 75.5421 5.75866H74.5344ZM74.5344 5.01199H75.8224C76.438 5.01199 76.7369 4.47999 76.7369 3.89199C76.7369 3.40666 76.4943 2.86533 75.8312 2.86533H74.5344V5.01199" fill="#231F20"/>
<path d="M78.9026 2.11867H80.9745C81.8333 2.11867 82.4494 2.42666 82.7854 3.14533C83.0562 3.71466 83.0838 5.05866 83.0838 5.27332C83.0838 6.71065 82.953 7.54133 82.6734 7.98933C82.3093 8.568 81.6276 8.85733 80.4521 8.85733H78.9026V2.11867ZM79.7609 8.11066H80.5729C81.7677 8.11066 82.2062 7.66266 82.2062 6.09466V4.732C82.2062 3.36933 81.7864 2.86533 80.8906 2.86533H79.7609V8.11066" fill="#231F20"/>
<path d="M84.5864 8.85733V2.11867H88.0588V2.86533H85.4448V5.03066H87.8719V5.77733H85.4448V8.11066H88.1145V8.85733H84.5864" fill="#231F20"/>
<path d="M90.0932 5.75866V8.85733H89.2344V2.11867H91.5588C92.753 2.11867 93.1734 2.95866 93.1734 3.79866C93.1734 4.592 92.7344 5.19865 91.9406 5.33865V5.35732C92.7156 5.47866 92.9953 5.73999 93.0421 7.09332C93.0516 7.38266 93.1453 8.43733 93.2754 8.85733H92.3797C92.1364 8.39066 92.1926 7.51333 92.1188 6.61733C92.0526 5.796 91.3901 5.75866 91.101 5.75866H90.0932ZM90.0932 5.01199H91.3806C91.9969 5.01199 92.2958 4.47999 92.2958 3.89199C92.2958 3.40666 92.0526 2.86533 91.3901 2.86533H90.0932V5.01199" fill="#231F20"/>
<path d="M98.2219 2.11867V2.86533H96.4495V8.85733H95.5907V2.86533H93.8172V2.11867H98.2219" fill="#231F20"/>
<path d="M103.523 8.85733H102.497L100.546 2.11867H101.479L103.02 8.04533H103.039L104.615 2.11867H105.493L103.523 8.85733" fill="#231F20"/>
<path d="M106.343 6.39331V4.18132C106.343 2.83732 107.033 1.97865 108.461 1.97865C109.889 1.97865 110.58 2.83732 110.58 4.18132V6.39331C110.58 8.25998 109.889 8.99731 108.461 8.99731C107.033 8.99731 106.343 8.25998 106.343 6.39331V6.39331ZM109.702 6.43065V4.15332C109.702 2.74399 108.732 2.69731 108.461 2.69731C108.19 2.69731 107.219 2.74399 107.219 4.15332V6.43065C107.219 7.90531 107.649 8.27865 108.461 8.27865C109.273 8.27865 109.702 7.90531 109.702 6.43065Z" fill="#231F20"/>
<path d="M112.885 8.85733H112.082V2.11867H113.473L115.172 7.77466H115.191L116.908 2.11867H118.327V8.85733H117.468V2.86533H117.448L115.563 8.85733H114.752L112.904 2.86533H112.885V8.85733" fill="#231F20"/>
</svg>
