<?xml version="1.0" standalone="no"?>
<!DOCTYPE svg PUBLIC "-//W3C//DTD SVG 20010904//EN"
 "http://www.w3.org/TR/2001/REC-SVG-20010904/DTD/svg10.dtd">
<svg version="1.0" xmlns="http://www.w3.org/2000/svg"
 width="512.000000pt" height="512.000000pt" viewBox="0 0 512.000000 512.000000"
 preserveAspectRatio="xMidYMid meet">
<metadata>
Created by potrace 1.11, written by Peter Selinger 2001-2013
</metadata>
<g transform="translate(0.000000,512.000000) scale(0.100000,-0.100000)"
fill="#000000" stroke="none">
<path d="M1161 4304 c-169 -45 -301 -180 -346 -351 -13 -49 -15 -240 -15
-1384 0 -860 4 -1345 10 -1380 35 -183 196 -344 379 -379 74 -14 2668 -14
2742 0 183 35 344 196 379 379 6 35 10 516 10 1370 0 1434 1 1395 -57 1504
-65 121 -202 222 -337 246 -41 8 -474 11 -1385 10 -1125 0 -1334 -3 -1380 -15z
m379 -419 l0 -275 270 0 270 0 0 -365 0 -365 320 0 320 0 0 -160 0 -160 -95 0
-95 0 0 80 0 80 -785 0 -786 0 3 598 3 597 23 50 c41 90 135 167 223 184 24 5
108 9 187 10 l142 1 0 -275z m2443 241 c67 -34 120 -89 150 -155 17 -37 22
-71 25 -168 l4 -123 -561 0 -561 0 0 -335 0 -335 265 0 265 0 0 -465 0 -465
295 0 295 0 0 -240 0 -240 -300 0 -300 0 0 80 0 80 -340 0 -340 0 0 -115 0
-115 -180 0 -180 0 0 435 0 435 180 0 180 0 0 320 0 320 -315 0 -315 0 0 365
0 365 -272 2 -273 3 -3 193 -2 192 1112 -2 1113 -3 58 -29z m177 -1246 l0
-640 -210 0 -210 0 0 465 0 465 -270 0 -270 0 0 175 0 175 480 0 480 0 0 -640z
m-1800 -915 l0 -595 260 0 260 0 0 -205 0 -205 -838 2 -837 3 -56 26 c-71 33
-125 87 -158 158 l-26 56 -3 678 -3 677 701 0 700 0 0 -595z m1040 -445 l0
-80 381 0 381 0 -4 -122 c-6 -135 -15 -165 -72 -240 -26 -33 -55 -56 -103 -80
l-68 -33 -437 -3 -438 -3 0 321 0 320 180 0 180 0 0 -80z"/>
</g>
</svg>
